/* XPM */
static char *result[] = {
/* columns rows colors chars-per-pixel */
"64 64 218 2 ",
"   c #000000",
".  c #0D0904",
"X  c #080709",
"o  c #0C0C0C",
"O  c #120C04",
"+  c #150C0C",
"@  c #0F100F",
"#  c #16110C",
"$  c #0D0C11",
"%  c #120B14",
"&  c #131313",
"*  c #181617",
"=  c #1B1B1B",
"-  c #240D18",
";  c #290E1E",
":  c #2C111B",
">  c #261E1B",
",  c #391F16",
"<  c #3D250E",
"1  c #24211E",
"2  c #29241B",
"3  c #3D2614",
"4  c #362318",
"5  c #39251D",
"6  c #1D1727",
"7  c #1D1C23",
"8  c #250D21",
"9  c #241A24",
"0  c #2B1D22",
"q  c #241D2C",
"w  c #261E35",
"e  c #222222",
"r  c #2A2029",
"t  c #2C232C",
"y  c #2C2B2D",
"u  c #322324",
"i  c #3D2B23",
"p  c #33252B",
"a  c #37292F",
"s  c #2B2533",
"d  c #2B2838",
"f  c #352A31",
"g  c #392C32",
"h  c #322E3C",
"j  c #343535",
"k  c #3C3236",
"l  c #35333D",
"z  c #3C333B",
"x  c #3B3B3B",
"c  c #4B2C06",
"v  c #4A270C",
"b  c #452B0B",
"n  c #4B2B0B",
"m  c #512D08",
"M  c #4E300C",
"N  c #553304",
"B  c #5A3602",
"V  c #5E3902",
"C  c #54340D",
"Z  c #58370B",
"A  c #5B3B0D",
"S  c #462716",
"D  c #452C15",
"F  c #4B3219",
"G  c #5C3C13",
"H  c #553818",
"J  c #5B3D19",
"K  c #643D02",
"L  c #633F0A",
"P  c #603F16",
"I  c #443129",
"U  c #543C27",
"Y  c #5F401B",
"T  c #664104",
"R  c #694305",
"E  c #66420B",
"W  c #6B460A",
"Q  c #6E490C",
"!  c #714C0E",
"~  c #674516",
"^  c #6E4A13",
"/  c #63441D",
"(  c #734E13",
")  c #744F18",
"_  c #765115",
"`  c #785216",
"'  c #76521A",
"]  c #7A551B",
"[  c #7D591F",
"{  c #5E4121",
"}  c #5B4436",
"|  c #634523",
" . c #664827",
".. c #6C4C24",
"X. c #66492A",
"o. c #6A4C2B",
"O. c #6F502B",
"+. c #795625",
"@. c #7E5A23",
"#. c #74542E",
"$. c #7D5A2A",
"%. c #694D31",
"&. c #624B3E",
"*. c #6E5133",
"=. c #755632",
"-. c #765737",
";. c #7B5B34",
":. c #7B5C3B",
">. c #342E40",
",. c #363541",
"<. c #3A3642",
"1. c #3C3A44",
"2. c #3E3B49",
"3. c #433D49",
"4. c #3F4042",
"5. c #434344",
"6. c #44444A",
"7. c #49444D",
"8. c #47484D",
"9. c #4B4B4C",
"0. c #4C4C53",
"q. c #4C4854",
"w. c #524D58",
"e. c #4E5153",
"r. c #4F5159",
"t. c #545454",
"y. c #595754",
"u. c #53545B",
"i. c #5A555D",
"p. c #565B5B",
"a. c #5A5B5B",
"s. c #634C41",
"d. c #655F59",
"f. c #5A625E",
"g. c #5A5662",
"h. c #5D5D63",
"j. c #635E68",
"k. c #5D6363",
"l. c #5F6A66",
"z. c #626364",
"x. c #636D67",
"c. c #64646A",
"v. c #68676D",
"b. c #646B69",
"n. c #6A6C6C",
"m. c #65736B",
"M. c #66756B",
"N. c #6B726E",
"B. c #74706C",
"V. c #6D6D73",
"C. c #6C7471",
"Z. c #6C7D72",
"A. c #737474",
"S. c #727C76",
"D. c #76747A",
"F. c #747C79",
"G. c #7B7C7C",
"H. c #805D26",
"J. c #825E2B",
"K. c #84612D",
"L. c #88632E",
"P. c #866332",
"I. c #896634",
"U. c #8B6836",
"Y. c #82633E",
"T. c #8B673A",
"R. c #8E6A3B",
"E. c #906D3E",
"W. c #94703F",
"Q. c #8D6B43",
"!. c #916E42",
"~. c #936F49",
"^. c #947143",
"/. c #94714A",
"(. c #9A754B",
"). c #816E5C",
"_. c #6F8075",
"`. c #718177",
"'. c #75837A",
"]. c #7A857E",
"[. c #7A887F",
"{. c #8B867C",
"}. c #918A7F",
"|. c #7D7D81",
" X c #817F84",
".X c #7D8682",
"XX c #7E8982",
"oX c #838384",
"OX c #8C8782",
"+X c #828A85",
"@X c #85858A",
"#X c #868C88",
"$X c #8A8D8B",
"%X c #958F86",
"&X c #8D918E",
"*X c #9B948B",
"=X c #8C8C90",
"-X c #8E9190",
";X c #939393",
":X c #989898",
">X c #9B9C9C",
",X c #A19A8E",
"<X c #A39D94",
"1X c #9EA09E",
"2X c #A8A39C",
"3X c #A09FA1",
"4X c #9FA0A1",
"5X c #A3A3A4",
"6X c #A9A7A7",
"7X c #ABABAC",
"8X c #B4ADA4",
"9X c #B2ADA8",
"0X c #BAB4AB",
"qX c #AEAEB0",
"wX c #B6B5B3",
"eX c #C0B9AF",
"rX c #C1BBB2",
"tX c #C7C1B9",
/* pixels */
"                                  e k t 7 e y 5.9.5.} 1.x j r x 8.} 4.4.4.j y q o                                               ",
"                            o 8.G.;X5X@Xq.a.G.7X6X>X:X-X$XA.d.-X5X:X:X>X-X|.c.w.v.V.A.A.r X                                     ",
"                        e 9.OX5X5X:X>X:Xz.z.OX5X:X-X-X-X#XG.n.;X4X:X:X:X;X{.z.j.;X>X4X6X2X+Xj o                                 ",
"                    X y .X6X5X-X$X&X$X$Xz.z. X>X&X&X#X#XoXF.n.;X>X:X:X:X-XoXa.z.#X-X-X;X1X6X:X8.&                               ",
"                  X k G.oX5X;X#XXX+X#X#Xp.z.G.>X&XXX[.].[.F.B.;X;X-X:X-X$X.Xw.f.'.XX-X-X-X4X5Xn.t.9                             ",
"                3.$XD.c.A.$X>X+X`.].[.XXt.a.G.#XXX_._.'.`.A.V.#XXXXX.XXX.Xc.5.f._.'.-X;X:X7X).h.c.oX Xe                         ",
"              x >X9X7X;Xv.G.>XXXZ._.S.].e.7.n.A._.Z.M.M.m.t.a.A.S.Z._._.C.6.h p.M.'.$X-X:X.Xu.D.3XqXwX$X=                       ",
"            x >X6X1X2X6X$Xc.].+XZ.m.z.k.6.>.e.k.k.k.f.t.8.3.6.h.h.k.k.p.0.>.d 4.p.m._.#X|.u.h.>X5X5X5XwX$X*                     ",
"          y -X2X;X;X&X;X5X&Xh.z.p.0.5.,.s w s z <.,.f s q w q f l h s w q 6 6 s ,.8.f.k.e.h.:X<X;X;X&X2XqXG.X                   ",
"          t.XX-X&X#X].].#X;Xc.5.h 0 > 4 < n b c S b b b v 8 , m n v < 4 b N n 4 9 s l ,.6.#X>X$X$X#X;X;X1X+Xj                   ",
"        * A.S.].#X].'.S.C.x.6.q > < n v B K T W C E K R E 0 F ( ( ( G H _ ^ W Y H Z b r h h.A..X[.oX$X#X[.G.a.X                 ",
"        x f.N.`.`.'.'.Z.x.1.q 4 b N B F E [ H.K.| $.L.J.L.p } L.L.L.o.X.L.$.@.....[ ! A 5 f 0.N.].].].`.S.b.a.=                 ",
"      = t.t.t.z.M._.Z.x.5.0 4 b N K K H +.R.U.R.%.!.!.R.T.a s.~.E.!.-.*.Q.T.T.#.#.L.K.` ^ F k 8.x.S.C.M.a.t.a.x &               ",
"    o $X>XV.9.6.p.x.M.8.9 < 5 N K Q +.U $.E.I.U.X.~.!.R.P.a s.(.I.E.:.-.Q.P.I.=.;.U.E.U.$./ / y 0.p.y.t.0.u..X5Xa.              ",
"    6.5X6X6X#X8.4.e.e.y < N D N ! @.I.X.Q.T.I.T.o.~.R.I.P.a s.(.P.R.;.:.Q.I.P.=.=.U.R.R.;...@.{ h e.9.9.z.:XqX7X:X=             ",
"  & oX7X5X5X7X:Xe.l s 4 c V D Y ] P.R.%.~.!.I.U.X.~.E.P.J.I s.(.P.R.;.:.E.I.P.=.#.U.R.W.;.#.K.' i l 5.n.4X6X5X7XwXa.            ",
"  = 5X6X:X-X:X5X@X2.q v V R H ;.J.U.E.%./.!.R.U. .~.R.L.L.a &.(.K.E.;.:.Q.U.U.=.#.I.U.E.;.#.L.[ / h V.6X5X#X-X>XwX@XX           ",
"  e 6X>X&X-XXX-X;X2.> N R Q U Q.I.U.!.*./.!.R.U. .~.R.T.L.a s.(.$.E.Y.:.^.U.I.;.;.I.L.E.;.+.U.K.' g @X4X#X].].&X7X#X            ",
"  = 4X-XXXXXXX#XA.>.4 V ( ' | Q.I.U.E.*./.E.R.U...~.R.T.T.a &.(.K.L.;.:.Q.U.I.;.#.I.P.E.;.=.I.U.@.I g.$X'.XXXXXX:XG.            ",
"  & D.OX#X.X.XXXz.s 3 K ( ' | ~.U.U.!.=./.R.R.U...~.R.T.T.a s.(.@.I.Y.:.Q.P.K.;.#.I.P.U.-.=.I.I.@.I 2..X'.+X+XOXoXt.            ",
"  $ 8.h.C.F..X'.t.t b K _ ' { ~.R.I.!.%./.U.E.I...~.T.T.R.f s./.$.P.;.:.E.;.K.;.#.U.$.U.#.-.I.I.L.U 1.S.].oXF.n.p.s             ",
"  $ 0.8.4.0.p.k.8.u N R ( [ X.~.R.T.!.o./.I.E.I.o.!.T.R.R.a s.(.$.I.;.:.E.K.U.;.=.U.K.L.#.-.I.I.K./ g k.f.t.8.,.l d             ",
"  = .Xv.0.4.,.3.l i N R ( @.*.~.R.U.!.o.~.I.E.I.o.!.T.R.E.a s.(.J.L.;.:.E.$.K.;.;.U.@.L.#.-.I.P.K...t ,.4.1.1.1.8.4.            ",
"  e 7X6X-XV.0.x d I N K ( @.-.Q.U.U.E.o.~.I.R.I.o.T.T.E.!.a s.(.J.I.;.:.E.K.$.;.;.E.@.L.$.=.U.P.K.O.p l 4.0.k..X:XF.            ",
"  e 7X5X>X5X;Xc.,.i N K _ @.=.Q.U.R.R.o.^.I.R.I.X.T.R.!.!.a s.(.K.P.$.:.T.J.$.:.:.R.K.K.#.=.U.L.K.o.g e.v.$X4X<XqX@X            ",
"  e 6X:X$X-X;X;Xu.i N R _ H.-.Q.I.R.I.o.Q.U.R.U.X.T.!.Q.E.a } (.P.P.=.-.T.J.$.P.P.R.K.K.#.=.U.L.K.o.k F.>X;X;X;X5XOX            ",
"  e 5X&X#X+X#X#Xu.i N R ( H.:.!.U.R.I.X.R.R.R.I.o.R.!.E.R.f } (.Q.I.=.-.U.P.;.P.;.E.K.I.$.-.U.I.L.O.y @X-XXX#X-X:XoX            ",
"  e 1X$XXX`.].XXg.u C K Q K.=.^.R.^.!.*.Q.^.W.R.o.Q.^./.!.f } (.Q.R.-.=.R.Q.T.Y.Y.^.R.W.;.:.W.R.R.X.h =X#X.X].+X:X.XX           ",
"  e >XXX`.'.].'.u.l y.B.{.}.*X2X9X9X8X8X0X0X0X0X6X8X8X8X,Xz y.*X,X,X,X2X8X9X0X9X0X0XeXrXeX0XeXeX2X{.q.#XXX[.'.].&XoXX           ",
"  e &X`.'.'._.'.p.6 y j I 5.5.8.9.9.9.9.9.9.9.9.e.t.e.9.6.7 y 8.9.8.9.9.9.t.e.e.e.y.y.y.a.a.y.a.t.8.,..X[.`.'.`.].F.            ",
"  e XX`.].`._.`.r.$     X X X   . X   . X . X . X X X o o o @ o o . o o o o . O o @ . X X .         6 @X]._.`.'.].N.            ",
"  = +X].`.`.].].u.$ X . & & & @ + @ * * = = = = > e 1 1 1 e e 1 e 1 1 1 1 1 1 e = > * * * * & o O X q .XXX`.Z.'.XXx.            ",
"  * F.].'.F.F.F.u.u b c c b 3 b b b b 3 b b b b 3 b b b b > 4 c b b 3 b b c b 3 b b c b 3 D c c c < j M.S.S.S.'.'.a.            ",
"  & z.c.n.N.b.x.6.5 N Q @.@.{ $.K.K.K. .$.J.K.K.| +.J.J.J.t U K.K.$.{ +.P.K.$. .$.$.K.$.{ $.$.P.$.Y k M.n.M.n.n.b.6.            ",
"  o 3.3.9.7.8.8.1.5 N Q K.R.%.R.R.R.R.#.I.R.E.R.o.Q.E.E.Q.f } E.R.E.%.R.W.!.^.%.E.E.E.U.o.!.!.W.E.| g 6.8.7.7.7.l 6             ",
"  % w.g.i.d.z.z.0.i B Q @.P.o.P.I.I.R.O.I.U.U.I.X.R.R.U.R.p } E.K.K.o.T.R.R.R.O.U.R.U.P.O.!.R.U.U./ z y.h.z.g.y.q.l             ",
"  e 5X>X>X>X1X>XV.I N W [ K...T.K.K.I.O.P.I.P.$. .T.I.P.I.p } L.@.@.X.I.L.L.$...L.U.U.K.%.E.R.I.U./ 3.=X6X5X5X5X5XoX            ",
"  e >X;X[..X+X+Xk.i B W ] @...I.K.K.K...P.K.L.@.| I.K.K.K.u U @.@.@.X.K.$.$.@.O.K.K.K.K.O.R.K.K.P./ x =X;XOXXX&X:XoX            ",
"  e :X#XXX'.].].h.5 N K _ @. .K.[ [ K.X.P.K.K.@.| I.@.@.@.p { @.@.]  .K.[ @.[ O.K.@.$.+.X.I.] @.L./ I -X+X[.[.+X;XG.X           ",
"  e ;X$XXX'._.].h.5 B E _ [ / +.[ [ K./ K.K.@.@.| U.@.@.] r U [ [ ' | K.[ [ [ ..$.[ [ [  .K.` ' H./ 3.=X[.`.].].&XG.            ",
"  e &X].].`._.'.k.4 N T ^ _ J ) ` ] [ ~ @.@.@.( Y P.] ] ] u U ' [ ' | J.` ] ] | @._ ` '  .@._ ` ] / k &X[.`.].'.].F.X           ",
"  e &X`._.Z.Z.[.h.5 B K W Q G ^ Q ! ! ~ _ _ ' W Y +.( _ ! u H ` _ _ / ' Q _ ' | ' _ _ ' / ' Q _ ] / g @X`.Z.Z.Z.].F.            ",
"  * '.`.S.F._.`.r.u N K R R Z W W Q Q Y W ( Q W Y ) ( Q R u F ` ( ! J Q ! _ ( Y _ Q Q ( Y _ ! _ _ / k A.Z.Z.S.`.'.k.            ",
"  & c.c.b.M.N.n.8.3 N T R R Z T R R R A R W R R G Q Q R T e F ( W W A W ! ( R G R W W W E W W W ! Y x b.N.n.c.g.h.5.            ",
"  % 3.3.9.q.e.e.,.5 B T K K C K T T T C T R T T C E R T K 0 D R R K Z W W R K Z T T T V Z T T T T Z p 8.9.9.6.3.>.q             ",
"  % 3.g.i.t.t.t.z 5 Z V K L M V E E E J W W ^ W { ^ Q Q E 0 D R K E J E W W E J E E E E J W W W W G p 6.t.t.y.i.3.s             ",
"  7 >X<X>X:X:X:Xi.<.y.d.n.B.].{.{.{.%X*X2X2X8X8XqXwXeXeXrX5.y.%X*X,X<X2X2X2X<X<X2X8X8X8X7X0XtXtXtXtXh.G.>X:X>X>X4XD.            ",
"  e >X&X#X#XOX;Xn.9 e y y y j j x x x j j x x x } 5.5.8.8.= e j x x x 5.5.5.5.5.9.e.e.9.9.9.t.a.h.a.q.;X>X;X$X;X:XoX            ",
"  e -X'.'.'.S..Xk.$                                       .     .   X o @ @ @ @ & & o & & & * & * = l $X.XZ..X.XXXF.X           ",
"  * F.x.m.M.m.m.g.% . O . O . . . O O . O O O O O O # # + & * > = > 1 2 2 1 2 2 2 2 2 2 2 2 2 2 2 2 h .X|.b.l.l.m.k.            ",
"  = F.b.m.m.m.b.r.u N B V V n B V V V M N B B B v B V V B 0 3 K V B M Z B V B M B B V B n B V V B M f G.m.l.l.l.C.k.            ",
"  * V.l.l.l.b.F.u.u V R ! _ G W ( ( _ G ^ ( ( ) H ^ ( ( ) 0 F _ _ ( H ( ( ) ( G ( ) ) ) H ) ) ) ( ~ f D.C.k.k.k.l.g.            ",
"  & z.l.k.k.x.C.g.5 V R ! ` ~ ( ] ] ` Y ( ] ] ] / ' ] ] ] u F ] ] ' J ' ` ] ` Y ' ] ] ) P ] ] ` _ ~ k C.C.l.l.l.b.e.            ",
"  $ q.u.u.g.r.r.0.5 V R ! ] G ^ ` ` _ G Q _ _ ] J ) ) ` ] u F ! _ _ J ^ _ _ ( Y ' ` ( W G ` ) ( Q A k k.k.p.g.u.0.l             ",
"  X >.<.<.1.1.1.h 5 V R ( ' A Q ! _ ! G Q _ ( ( G ( ! ! ( u D ! Q ^ G T W W R J ! W W R G Q R K R A t <.,.h h d s 6             ",
"  X d 2.2.2.2.,.d 5 V T Q Q Z T W W W A R W Q W A R R R L 0 D K T K C K T K V Z R K K V C K K K T Z r l <.3.2.,.s 6             ",
"  * |.|. X@X.X@Xg.5 m V B L v B V K V Z K K K K Z L K K m 0 3 V N B M A B V B C V B B m c B B N N M s D.@X X@X|.|.g.            ",
"  6 :X;X-X@X=X-Xg.0 S v m v , v m n n S v v m m S v v v S 9 , m n v S m m S v S m N c v , c N c v , t @X=X@X=X-X>XD.            ",
"  = |.v.V.V.V.D.q.% % - - ; ; ; : : - ; ; ; : ; 8 8 8 8 ; 8 8 : : ; 8 ; : ; : ; : : : ; ; - - - - . q V.V.V.V.v.V.h.            ",
"  & v.j.c.v.v.V.q.$           X   X   X X X   X X X     X     X X     X   X   X X     X X       X   s g.u.g.r.r.r.2.            ",
"  & g.q.q.q.q.q.>.& * * * = = = = = = = = = = = * * = = = = = = = = = = = = = = = = = = = = = * * * q 4.2.3.2.,.2.l             ",
"  X 7 6 7 7 e e % o o o o @ @ @ @ @ @ @ @ @ @ @ # $ @ @ @ @ @ @ @ @ @ @ # o @ & @ @ o @ o o o X X X $ 7 e 7 6 * * &             ",
"                                                                                                                                ",
"                                                                                                                                "
};
