/* XPM */
static char *result[] = {
/* columns rows colors chars-per-pixel */
"64 64 145 2 ",
"   c #000000",
".  c #090605",
"X  c #0C0906",
"o  c #0A030C",
"O  c #140F0A",
"+  c #19130D",
"@  c #0F001A",
"#  c #150716",
"$  c #11001C",
"%  c #19071D",
"&  c #251D12",
"*  c #2D2316",
"=  c #332719",
"-  c #392C1C",
";  c #230927",
":  c #260A2B",
">  c #330D3B",
",  c #300C36",
"<  c #443521",
"1  c #483723",
"2  c #4F3C27",
"3  c #523F28",
"4  c #544129",
"5  c #5F492F",
"6  c #59452C",
"7  c #69542F",
"8  c #644D31",
"9  c #6F4F3D",
"0  c #6B5333",
"q  c #70513D",
"w  c #775B3A",
"e  c #795D39",
"r  c #705635",
"t  c #7A6037",
"y  c #7D613B",
"u  c #390F42",
"i  c #3C1044",
"p  c #401147",
"a  c #45124E",
"s  c #48124F",
"d  c #5B154D",
"f  c #440D53",
"g  c #461252",
"h  c #491353",
"j  c #51155B",
"k  c #6D1642",
"l  c #7B1947",
"z  c #5F3646",
"x  c #551562",
"c  c #5C1868",
"v  c #60196C",
"b  c #751C6D",
"n  c #641A73",
"m  c #681B76",
"M  c #6B1B79",
"N  c #701C7F",
"B  c #666566",
"V  c #80623D",
"C  c #9C205F",
"Z  c #901F67",
"A  c #A52162",
"S  c #A82263",
"D  c #CE297C",
"F  c #D3297D",
"G  c #876840",
"H  c #8B6B42",
"J  c #9A774A",
"K  c #9C784B",
"L  c #967448",
"P  c #A27D4D",
"I  c #A68050",
"U  c #B58B57",
"Y  c #B98E58",
"T  c #BD925A",
"R  c #C2955C",
"E  c #C6995E",
"W  c #CE9F62",
"Q  c #CFA063",
"!  c #D3A264",
"~  c #D9A767",
"^  c #DAA867",
"/  c #DEAB69",
"(  c #E2AE6B",
")  c #E5B06D",
"_  c #EAB46F",
"`  c #EDB770",
"'  c #EFB871",
"]  c #F3BB73",
"[  c #FBC177",
"{  c #FDC378",
"}  c #731D82",
"|  c #781E87",
" . c #771D88",
".. c #7F1E91",
"X. c #7A208B",
"o. c #7F2190",
"O. c #822194",
"+. c #862298",
"@. c #8B239D",
"#. c #BA2B9E",
"$. c #971DAD",
"%. c #981FAD",
"&. c #931EB2",
"*. c #8D25A1",
"=. c #9125A4",
"-. c #9526AB",
";. c #9926AE",
":. c #9627B1",
">. c #9B27B0",
",. c #9E29B3",
"<. c #9E29BC",
"1. c #9938AB",
"2. c #A027AF",
"3. c #A428AE",
"4. c #AB29AC",
"5. c #BA2BA6",
"6. c #BB3DA2",
"7. c #A128B6",
"8. c #A429BB",
"9. c #A82BBF",
"0. c #AA2AB7",
"q. c #DC2E9E",
"w. c #EF2F90",
"e. c #FE3296",
"r. c #F6319B",
"t. c #FE339A",
"y. c #C02BA7",
"u. c #CA2BAB",
"i. c #C52DB4",
"p. c #D12EB1",
"a. c #EE31AB",
"s. c #FF36A3",
"d. c #9F45AF",
"f. c #AC4BBC",
"g. c #AF55BF",
"h. c #AC2CC4",
"j. c #B32ECA",
"k. c #A84DC0",
"l. c #B358C3",
"z. c #919191",
"x. c #9B9B9B",
"c. c #ACAFAB",
"v. c #AFB1AE",
"b. c #BCBCBC",
"n. c #FEFEFD",
/* pixels */
"                                                                                                                                ",
"                                                                                                                                ",
"                                                                                                                                ",
"                                                                o     .                                                         ",
"                                                                                                                                ",
"                                                    : x j j j j j j j j x g                                                     ",
"                                                    j j.8.9.9.9.9.9.9.7.h.@.                                                    ",
"                                                    h 9.-.;.-.-.-.;.;.;.7.O.                                                    ",
"                                        # } X.M X.} +.,.;.>.>.>.;.>.>.>.>.-.} } } N | p                                         ",
"                                        % 8.8.8.,.8.,.;.>.>.>.;.>.>.>.>.>.>.8.8.8.7.j.x                                         ",
"                                    o   ; >.>.;.;.;.>.>.>.>.>.>.>.>.>.>.>.>.;.;.;.;.7.x   o                                     ",
"                                  o o.*.*.>.>.>.;.;.;.>.>.>.>.>.;.>.>.>.>.>.>.>.;.;.;.-.@.;.u                                   ",
"                                  o =.7.>.$.$.>.7.7.,.>.>.>.>.>.>.>.>.>.>.;.$.$.>.8.7.,.>.h.i                                   ",
"                                  o *.>.>.g.l.d. .X.@.,.;.>.>.>.>.>.;.;.;.,.g.l.d. .X.@.>.7.u                                   ",
"                                  o *.>.f.n.n.v.    g 8.;.;.>.>.>.>.>.,.;.f.n.n.v.    a 8.7.i   o                               ",
"                                    *.&.f.n.n.b.    h 8.;.>.>.>.>.>.>.,.-.k.n.n.b.    g <.<.,                                   ",
"                              , a g 5.u.6.z.x.B     h 9.-.;.>.>.>.>.>.>.>.1.z.x.B     d p.u.b u p o                             ",
"                              | h.0.t.t.F           j 9.;.;.;.;.;.;.;.;.7.o.      .   l s.e.i.<.h.:                             ",
"                              } 7.;.r.t.D           a 9.;.7.8.8.9.7.9.>.7.O.          k s.e.5.-.>.:                             ",
"                              } 7.2.r.t.w.A S Z n c ..,.7.c , u u > u =.,.=.n n b S C D t.e.5.:.7.:                             ",
"                              N 7.;.r.t.t.s.s.a.<.9.,.;.9.,           *.,.>.9.<.i.s.s.t.t.e.y.:.7.;                             ",
"                              N 8.2.r.t.t.e.e.q.-.;.>.;.7.i   o     o *.,.>.;.-.5.e.r.t.t.t.y.:.7.;                             ",
"                              N 8.;.4.4.4.4.4.3.>.>.>.>.,.*.o.O.O.O.O.>.>.>.>.>.3.4.4.4.4.4.3.;.7.;                             ",
"                              N 8.;.:.>.:.:.:.>.>.>.>.>.>.,.7.,.7.8.7.>.>.>.>.>.>.:.:.>.:.:.>.>.7.;                             ",
"                              } 8.;.;.2.>.>.>.>.>.>.>.>.>.>.;.;.;.;.;.>.>.>.>.>.>.>.>.>.>.>.;.;.,.:                             ",
"                              } 7.-.;.;.;.>.>.>.>.>.>.>.;.;.;.;.;.;.>.-.;.;.>.>.>.>.>.;.;.;.-.;.>.:                             ",
"                              | h.7.8.8.8.;.>.>.>.;.7.8.9.8.7.9.8.8.8.8.8.8.>.>.>.>.>.7.8.8.8.8.h.:                             ",
"                              h N m M m } >.>.;.;.7.O.n M m m m M M m M n } >.>.>.>.,.O.m m M m M #                             ",
"                                        # ;.-.;.-.7.h                     # ;.;.>.-.8.j                                         ",
"                                        $ 9.9.8.8.j.x                     @ 8.9.8.7.j.x                                         ",
"                                  . 0 y 9 g h h s g z t e w w w e e e w t q g g g h f z y G *                                   ",
"                                  O ~ [ R           r { ` ' ' ' ` ' ' ' ] E           0 [ ] 5                                   ",
"                                  X W ) U           8 ` ~ ~ ^ / ^ ^ / ~ / U           8 ) ) 3                                   ",
"                                  . W ( ! I I I I P T / / / / / / / / / / ~ I I P I P R / ` 4   .                               ",
"                                  X W ) ( ` ` ` ' ' ) ( / / ( / / ( / ( ( ) ` ` ` ` ` _ / ' 4                                   ",
"                                  X T ~ W W Q W W Q Q ! ! ! ! ! ! ! ! ! Q Q W W W W W Q W / 2   .                               ",
"                                    O O O O O O O O O O O O O O O O O O O O O O O O O O O O .                                   ",
"                                                                                                                                ",
"                                        X = = = = = = = = = = = = = = = = = = = = = = +                                         ",
"                                        & ( / ( ) ) ) ) ) ) ) ) ) ) ( ) ) ) ) ) ) / ] e   .                                     ",
"                                        * ` ' ) ^ ^ / / ^ / / / / / / / / / / / ( _ [ V   .                                     ",
"                                        O y e K ) / / / / / / / / / / / / / / ( R w V <                                         ",
"                                              - ` / / / / / / ( / / / / / / / ` L                                               ",
"                                          .   1 _ / / / / / / / / / / / / / ^ _ K   . .                                         ",
"                                              < _ ^ / / / / / / / / / / / ( ^ _ K                                               ",
"                                          .   1 _ ^ / / / / / / / ( / / / / / _ K   .                                           ",
"                                              < _ ^ / / / / / ( / / / / / / ^ ) J                                               ",
"                                              X & O y ` ^ ( / / / / / / ) R & & +                                               ",
"                                                    8 ' ^ / / / / / / ^ ) Y                                                     ",
"                                                .   0 ` ^ / / / / / / / ) T                                                     ",
"                                                    0 _ ~ ^ / / / / / ~ ) Y                                                     ",
"                                                .   r [ ) ) / / / ( ( _ ] E                                                     ",
"                                                    1 P H E ) ^ / / ^ K J y                                                     ",
"                                                          V _ ~ ^ / W .                                                         ",
"                                                      .   K { _ _ ] ( +   .                                                     ",
"                                                          < 0 8 8 8 5 .                                                         ",
"                                                                                                                                ",
"                                                              .   .                                                             ",
"                                                                                                                                ",
"                                                                                                                                ",
"                                                                                                                                ",
"                                                                                                                                ",
"                                                                                                                                ",
"                                                                                                                                "
};
