/* XPM */
static char *a2b4a1611fcf4b5dfef982106902d768puQxFfGc8RAFDXRr[] = {
/* columns rows colors chars-per-pixel */
"64 64 194 2 ",
"   c #2E0000",
".  c #330000",
"X  c #3C0200",
"o  c #3C0A00",
"O  c #440100",
"+  c #4A0200",
"@  c #450900",
"#  c #4B0A00",
"$  c #520400",
"%  c #590600",
"&  c #550A00",
"*  c #5B0B00",
"=  c #441100",
"-  c #4C1100",
";  c #541200",
":  c #5C1300",
">  c #5D1A00",
",  c #620E00",
"<  c #680D00",
"1  c #651300",
"2  c #6B1500",
"3  c #631D00",
"4  c #6D1900",
"5  c #711700",
"6  c #731C00",
"7  c #791C00",
"8  c #652202",
"9  c #6B2402",
"0  c #6E2906",
"q  c #672608",
"w  c #6B2B0C",
"e  c #752100",
"r  c #7C2400",
"t  c #732906",
"y  c #7C2B03",
"u  c #742E0C",
"i  c #782F0B",
"p  c #7A310E",
"a  c #6F3011",
"s  c #65331B",
"d  c #6A361E",
"f  c #743314",
"g  c #7C3614",
"h  c #7E3916",
"j  c #7C3A1A",
"k  c #6D3A23",
"l  c #733D24",
"z  c #75422A",
"x  c #7A452C",
"c  c #7F492F",
"v  c #7D4932",
"b  c #832600",
"n  c #8B2700",
"m  c #842A00",
"M  c #8A2D00",
"N  c #873102",
"B  c #8D3204",
"V  c #943404",
"C  c #9C3603",
"Z  c #9A3806",
"A  c #923608",
"S  c #95390B",
"D  c #9B3C0C",
"F  c #803613",
"G  c #843A15",
"H  c #8D3D15",
"J  c #833D1B",
"K  c #883F1C",
"L  c #943E12",
"P  c #9B3F10",
"I  c #A23A04",
"U  c #A83D05",
"Y  c #A13D0A",
"T  c #A93F0B",
"R  c #A13F10",
"E  c #843F20",
"W  c #9C400F",
"Q  c #84411E",
"!  c #8C421D",
"~  c #964317",
"^  c #9C4214",
"/  c #93441D",
"(  c #9B451B",
")  c #9C491D",
"_  c #A4410E",
"`  c #AC430D",
"'  c #B3460E",
"]  c #A44413",
"[  c #AB4613",
"{  c #A74916",
"}  c #AD4915",
"|  c #A34719",
" . c #A54A1C",
".. c #AB4B1B",
"X. c #B14713",
"o. c #B34A14",
"O. c #BC4D14",
"+. c #B34E1A",
"@. c #B84E19",
"#. c #BE5015",
"$. c #B2511E",
"%. c #BD521C",
"&. c #864321",
"*. c #8C4522",
"=. c #8D4926",
"-. c #80472C",
";. c #80482F",
":. c #8D4B2B",
">. c #924621",
",. c #954A24",
"<. c #9A4C25",
"1. c #934D2B",
"2. c #9A4F29",
"3. c #9E5127",
"4. c #96502E",
"5. c #9C512C",
"6. c #834D34",
"7. c #8B4F31",
"8. c #904F31",
"9. c #865137",
"0. c #8B5136",
"q. c #8C553A",
"w. c #8F593D",
"e. c #945333",
"r. c #9C5532",
"t. c #9E5836",
"y. c #925739",
"u. c #94593D",
"i. c #9B5B3B",
"p. c #A24D23",
"a. c #AB4E21",
"s. c #A55126",
"d. c #AB5124",
"f. c #A3532B",
"g. c #AB562C",
"h. c #AD592D",
"j. c #B55523",
"k. c #BA5623",
"l. c #BB5926",
"z. c #B1572B",
"x. c #B95728",
"c. c #B4592C",
"v. c #BA5A2A",
"b. c #A35631",
"n. c #A55A35",
"m. c #AA5D36",
"M. c #AC5C34",
"N. c #A35D3C",
"B. c #AE5F38",
"V. c #AB5E39",
"C. c #B25D33",
"Z. c #B95E32",
"A. c #AF6037",
"S. c #A5613E",
"D. c #AB603B",
"F. c #B46136",
"G. c #B96134",
"H. c #B26139",
"J. c #B86438",
"K. c #C64906",
"L. c #C84807",
"P. c #C94806",
"I. c #C54808",
"U. c #C54909",
"Y. c #C74D0E",
"T. c #C94908",
"R. c #C94A09",
"E. c #C94D0D",
"W. c #C74F10",
"Q. c #C04F15",
"!. c #C75114",
"~. c #C45114",
"^. c #C0531B",
"/. c #C1521A",
"(. c #C25218",
"). c #C0521D",
"_. c #C2531C",
"`. c #C1541C",
"'. c #C2551D",
"]. c #C3551C",
"[. c #C1561E",
"{. c #C2571F",
"}. c #C0531B",
"|. c #C15722",
" X c #C15721",
".X c #C15A26",
"XX c #C15A25",
"oX c #C25C2A",
"OX c #C05A29",
"+X c #965D41",
"@X c #9B5E41",
"#X c #9D6144",
"$X c #A36343",
"%X c #A86341",
/* pixels */
"P.T.T.L.T././ + o.T.U.L.L.(.<.+ ' U.P.P.K.#.<.$ ' E.I.L.T.O.p.+ T E.U.T.T.O.s.$ U W.I.L.L.O.s.$ I W.K.P.I.O.d.$ C !.I.L.L.O.j.% ",
"].'.]._._.l.1.+ j.].]._.].l.e.+ j.|.%.%.].l.r.+ ..|.%._._.x.n.+ ..XX%.|.].l.n.+ | OX|._.].k.m.+ ^ XX%.].].k.H.$ P oXk._.].k.B.& ",
"F g G J g j s   j g g J F j s   f h g J G j s   f j G J F j k   a G j G G h k   w G j G G j l   q J g J G j l . q J g J G h l . ",
"+ # X   # @ @ # # # @   # # @ @ + # @   @ # @ @ + O @   # + @ @ # + @   O # @ @ # @ @ . O # @ # # + @ . O @ @ # + # @   O # @ @ ",
"(.l.>.+ j.%.%.%./.l.,.+ +.%.k.@.%.k.5.+ ..k.%.%._.k.r.+ { |.k.O._.x.b.+ { |.%.%.%.j.n.+ ] |.%.%.].j.M.$ P l.%.%.%.j.C.$ A l.%.%.",
"(.l.1.O j._./././.l.1.+ $.|._././.l.r.O $.].%.%._.x.b.O ..|.%._./.x.b.+ | |._._._.k.n.+ ^ OX_._./.k.M.+ P XX%._._.k.B.$ S oX%.].",
"H &.s   l K K Q G ! k   j J J K G &.k   j K J ! K J k   f E K ! G J l   f J G E J J z . a E G &.G J z . w &.J K K J x . w &.J ! ",
"+ + @ @ + + X . @ + O @ + # X . O + @ @ + O O   O + @ @ + + O   O + @ @ + O @ . O + @ @ + + O . O # @ @ + + @   O O O @ O O @ . ",
"O.%.@.%.%.j.>.+ +.%.@.%.%.k.,.O  .%.@.%.O.j.2.+  .%.@.%.O.j.b.+ | k.@.%.%.$.f.+ ] k.%.%.@.k.b.$ D k.%.%.O.j.M.$ S l.@.%.@.j.g.& ",
"_././././.x.1.O j.%./././.k.4.+ j.]./.`./.l.5.O .. X/./._.k.r.O ..|.%././.k.n.+ ] |.%.%./.k.M.+ ^ XX%.%._.k.M.+ P OXk._./.k.B.& ",
"/ ! ! >.! *.k   Q ! *.*.K =.l   J *.! *.! &.z   J *.! *.! =.z . j *.! / ! &.x   f *.! ! ! &.x . a >.Q >.*.&.x X w *.*.*.! &.-.o ",
"+ + X . O O O O O + X . O O X O O O O . O + X O + O O . O O O O O O O . O O O O + O O . X @ O O + O O . O + O X O + O . O + O X ",
"O.j.*.+ ..@.@.@.O.j.,.O ..%.@.@.O.j.,.+  .%.@.@.@.j.2.O | @.@.@.@.$.f.O ] %.@.@.O.j.f.+ P k.@.@.O.$.b.$ S k.@.@.@.+.n.$ A l.+.$.",
"(.x.=.O j.%.`.%./.x.8.O j.%./.%._.k.e.O ..].%.%./.k.r.+ ..XX%.%.%.k.b.O | l.%./.%.j.n.+ ^ l.%.%.%.j.M.+ P XX%.%./.j.B.+ S l.%./.",
">.:.k . =.>.>.,./ :.l . &.>./ >./ :.z . Q ,.>.>.>.=.x . J >.>.,.>.*.6.. j ,.>.,./ =.6.. j 1.>.>.! =.6.X f 1.*.,.>.=.6.X f 1.>.>.",
"+ O X X O + X . O O X X O O O . + O X X O O O . O O X X O O O . + O X O O O O . O O O X O O O . O O O X O + O . O O O X O O O . ",
"O.o.+.+.o.j.*.O  .o.+.@.o.+.>.O  .@...@.o.$.,.O | @.+.+.o.+.<.O _ $.X.+.X.+.2.+ W $...+.@...f.+ S k.X.@.o.+.b.+ A j.+.+.X...f.& ",
"_._.|.O./.k.:.O j.%.%.%.%.l.1.O d.%.%.%.%.k.r.O ..k.@._.%.x.b.O  .l.%.%._.j.n.+ ] XX%.%.%.k.n.+ ^ l.%.%.O.j.M.$ S OX%._./.j.B.& ",
",.<.,.<.<.1.z . :.<.,.,.,.1.x . =.,.,.<.<.1.c . &.2.,.<.,.1.6.. Q <.,.2.,.1.6.. j 5.>.<.<.1.0.. j 2.>.1.<.1.0.X g 2.1.<.,.1.0.o ",
"+ + X X O O X X O + X X + O X X O O O X O O X . O + X X O + X . O O X X O + X X O O O X O O X X O O O X O O X X O O O . O O X X ",
"o...K O  .X.} +.X...! O  .X.} X.X...*.O ] o.X.+.X...,.O W +.[ +.X...,.+ P +.} X.X...3.+ A +...} }  .3.+ A +.} } o. .f.+ B $.} ..",
"/.v.:.O j.%.%.%.%.x.4.O d.].%.%.%.j.r.O a.k.%.@.@.j.r.O  . X%.%.%.j.b.O | l.%.%.%.j.n.+ ^ l.%.%.%.j.n.+ P l.%.%.%.j.V.+ S l.@.k.",
"<.5.x . 1.2.<.3.<.5.c . 1.3.2.2.3.5.v . :.2.<.f.s.r.6.. &.3.<.2.2.r.9.. &.5.<.2.2.2.9.. J r.<.2.<.1.q.X j r.2.2.p.1.w.X j r.2.s.",
"+ + X . + + X X O + X . O + O O + O X X O + O X O + X X O O O X O + X . O + O O O O X X O + O X + + O . O O O O O O O . O O O X ",
"` [ [ [ ` ..K O ] [ [ } [  .K O ^ [ [ [ [ { *.O P [ [ } ` { >.O S } { [ [  .,.O S  .[ [ [ { ,.+ B ..] [ [ | <.+ M ..] [ [ { <.$ ",
"%.%._.%.%.c.:.O d.%.%.%.%.x.1.O a.|.%.%.%.x.r.O a.k.%.%.%.x.t.O | l.%.%.@.j.n.+ | l.%.%.%.j.n.# ^ l.%.%.%.j.m.+ L l.%.%.%.j.m.& ",
"s.f.f.3.s.r.v . 4.f.f.3.s.r.6.. 1.f.f.s.f.r.6.. 1.b.s.3.s.r.q.. *.f.f.3.f.r.q.X &.b.3.3.3.r.q.X E b.f.f.f.5.+XX J n.5.f.3.5.u.@ ",
"+ O O O + O X . + O O O O + X . O + O O + + X X O O O O + O O . + + O O O + X . O O O O O + O . O + O O O O X X O O O O + O @ . ",
"T ] j O P _ R [ T ] G O P _ _ [ _ ] Q O S ` R ] T ] ! X S ] ] ] Y ] >.O A [ R [ _ ] >.O B [ R { ] ] >.O M | ] ] ` ^ <.+ m  ._ ] ",
"%.c.:.@ z.k.k.%.%.c.e.O d.k.k.%.%.c.e.O s.l._.k.%.z.t.O  .l.%.%.%.x.r.O ( l.%.%.%.j.n.O ^ l.k.@.%.j.V.+ P v.k.%.%.j.V.+ H l.k.%.",
"f.n.v . r.g.f.f.f.n.6.. 5.f.g.f.g.b.9.. 4.f.f.f.f.b.q.. 1.b.f.f.f.b.w.. =.n.f.f.f.b.u.X &.n.f.g.f.r.u.o E n.f.f.f.r.+Xo j m.f.f.",
"$ + X . + + + + + + X . + + O + + + X . + + + + + + O   + + + + + + O . + + O + + + O . O + + + + O O . O + O + + + O . O + + O ",
"U D D _ Y R g X S Y D Y Y P F X D Y D Y Y ^ G X A Y D R Y D K X B Y D Y Y D ! O N _ D W Y W ! O m ] D Y Y D / + m ^ D R Y D K + ",
"%.%.%.%.%.C.:.@ z.k.%.%._.c.e.O a.l.k.k.%.c.e.O p.l.k.k.%.z.t.O p.l.k.%.k.c.t.O ) x.k.%.%.z.V.O ~ v.k.k.k.j.N.+ L l.k.k.).x.V.& ",
"g.g.h.g.g.n.6.. b.g.g.h.g.N.9.. r.g.g.g.g.n.q.X 2.M.g.g.g.n.w.o 1.M.g.g.f.n.+Xo *.M.g.g.g.n.+X@ ! B.f.g.g.b.+Xo J V.g.g.g.b.+X= ",
"$ + + + $ + X . + + + + $ + O . + + + + $ + O . + $ + + $ + O . + $ + + + + O . + + + + + + O . O + + + $ + + . O + + + $ + # . ",
"C D u X S Z S D C S g X A Z Z D Z D g X B Z D D Z S F X N Z Z D Z S G X M D S D C S K X m D Z D Z S ! O r D Z D Z S K O 7 P D D ",
"%.c.7.@ z.l.k.%.k.v.8.O d.l.k.|.k.c.e.O s.l.%.k.k.x.y.O p.l.k.k.k.c.t.O ) l.k.k.k.c.n.O ( l.j.k.k.x.N.O ~ v.j.k.k.z.V.# H v.j.%.",
"g.V.6.. b.h.h.g.g.V.9.X b.M.M.h.g.m.q.X r.h.h.h.h.n.+XX 5.B.g.g.g.n.+XX 1.M.z.h.g.n.+Xo =.A.g.g.g.n.#X@ *.D.h.h.g.n.@X@ J D.g.g.",
"$ $ O . $ $ $ $ % + @   + $ + $ $ + @   + & + $ $ $ O   + $ + $ $ $ @ . + $ $ $ $ $ @ . + $ $ $ $ + @ . + $ $ $ $ $ # . + & + $ ",
"C M V S V A u X M V V S V B u X M A V S V V p X M V B V V B p X m V B S V V g X r S V V V B G O r S B Z V B F O e S B Z V B G O ",
"k.k.k.k.%.c.7.X g.l.k.k.k.c.e.X g.l.k.k.%.c.e.O s.l.l.j.l.c.i.O p.l.k.k.l.z.i.@ ) v.k.k.k.c.N.O ( v.k.k.k.z.%X# ~ v.j.k.k.z.V.; ",
"c.z.z.g.z.B.9.o n.M.h.h.z.V.9.X b.C.z.z.z.B.w.o 5.M.z.h.z.m.u.X 2.C.z.h.z.V.+Xo 1.C.g.z.z.m.@Xo *.C.z.g.z.n.#X@ Q B.h.z.z.m.#X= ",
"% % * * % $ @   $ % % * % * # . $ % $ * % $ #   $ * $ * * & @ . $ % $ * % $ # . + * $ * % $ # . $ $ & * % % # . + & $ * * & $ . ",
"M M q X M M M V M M t X m M M V M N u X m M N V M N i X r B M V M M i X e B M B M M p X e B M B M M g X 6 B M B M M G O 4 B M B ",
"|.C.7.X g.x.k.k.k.C.8.O g.x.k.k.l.C.e.X f.l.k.k.k.c.u.O s.x.k.k.l.z.i.O <.v.j.k.l.z.i.@ ) v.x.k.l.z.S.O ~ Z.x.k.k.x.S.@ H G.j.k.",
"c.B.6.o n.C.z.z.z.B.q.o n.z.g.z.z.B.y.X b.C.z.z.h.B.u.X 5.C.g.z.z.D.+Xo 2.C.c.z.z.B.#X@ >.F.z.c.z.m.$Xo *.C.z.c.h.m.$X@ ! H.h.z.",
"< , # . * * * 1 % * # . * * * 1 * * #   * * * : , * # . & * * 1 * * &   $ * * 1 * * # . $ * * : * * & . $ * * 1 * * ; . + * * : ",
"n n b m n m 8 . b n m M m y 9 . y m m M b m 0 X e m m M m m 0 . e m m M n r t . 6 M b M m r u X 4 m b M m b i X 2 M b M m r y X ",
"x.x.l.k.l.F.0.@ h.c.l.l.k.Z.e.X g.l.j.k.k.C.y.X s.x.k.k.l.c.u.@ p.v.x.k.l.Z.@XO <.v.c.k.l.C.N.O ) Z.j.k.x.z.%X# ! Z.x.x.k.C.S.- ",
"c.c.c.x.z.D.9.o M.c.c.z.c.A.q.o b.c.x.c.c.m.u.o 3.Z.C.z.z.B.+Xo 5.F.z.z.z.A.#Xo 1.C.z.z.c.M.$X@ >.C.C.z.c.C.$X@ ! H.z.z.c.M.%X- ",
"< < , 1 < < # . * , 1 1 < 1 # . * , , 2 < 1 # . * , , 2 < , & . * 1 1 1 , 1 ; . & 1 , 2 1 , ; . $ 1 1 2 1 * : . $ 1 1 1 < : : . ",
"b r 3 . e r r b r r 3 . e r r m r r 8 . 7 r r b r r 9 X 6 r r b r r 8 . 4 b r m b r 9 X 2 b r m r r t X 1 r r m b 7 t X 1 b r b ",
"v.C.6.@ M.v.x.x.k.F.0.@ g.c.j.k.k.F.y.X f.v.c.k.j.C.u.X f.v.c.j.k.C.i.O <.v.x.j.x.C.@XO ,.Z.x.j.k.C.$X@ / Z.c.k.k.C.%X@ K G.x.x.",
"v.B.0.o M.c.v.v.x.H.q.X b.Z.v.c.c.C.y.X b.Z.c.v.c.B.u.O f.Z.c.x.c.B.+X@ 3.F.c.c.c.C.#X@ ,.F.c.c.c.C.$X@ *.F.c.c.c.C.$X@ ! H.z.c.",
"2 2 & . 2 2 2 2 2 2 ; . 1 2 2 4 2 2 ;   , 2 2 4 2 2 : . * 2 2 4 2 2 : . * 2 2 4 2 1 : . * 2 2 4 2 1 > . * 2 1 4 2 1 > X & 2 1 4 ",
"7 7 7 r 7 e > . 6 7 7 r 7 e > . 4 7 6 r 7 e 3 . 4 e 6 r 7 6 3 . 4 7 6 r 7 6 8 . 1 7 6 r 7 6 9 . 1 7 4 r 7 6 9 X 1 7 7 r 7 e 9 X ",
"c.v.x.c.v.C.7.o M.c.x.j.c.F.y.o M.v.c.l.l.B.y.o f.v.x.l.j.F.i.X 3.c.x.x.c.C.#XO <.Z.c.x.x.C.@X@ >.J.c.x.x.M.$X@ ! J.c.l.c.h.S.- ",
"c.v.v.v.x.C.0.o M.v.x.x.x.H.e.X f.v.c.c.c.C.u.X f.Z.x.c.v.A.+X@ 3.F.x.x.c.C.i.@ <.Z.z.c.c.C.$X@ / J.c.v.x.C.$X@ ! J.z.c.x.M.$X- ",
"5 6 4 6 5 6 :   2 5 4 e 5 4 > . 2 6 4 7 6 2 > . 1 4 4 e 6 4 > . 1 6 4 e 5 4 3 . 1 6 4 6 6 4 3 . : 6 4 7 6 2 3 . * 6 4 e 6 6 3 . ",
"5 4 ; . 2 5 4 7 5 2 : . 2 6 4 6 5 4 :   2 2 4 6 6 4 >   1 6 2 6 2 4 3 . < 6 2 6 6 4 > . , 6 4 6 5 4 3 . * 6 4 e 6 2 3 . * 4 2 7 ",
"x.J.6.o M.v.v.x.l.F.q.o M.c.x.c.c.C.y.@ f.Z.v.x.x.F.+Xo f.Z.x.x.v.C.i.X <.G.x.x.j.F.$X@ ,.F.v.x.x.C.%X@ / G.x.x.v.C.%X@ ! J.c.x.",
"j.C.7.O g.k.j.k.k.z.:.X g.j.j.k.k.C.e.X s.x.k.j.j.z.y.O <.l.j.j.j.z.i.X <.c.j.k.j.h.i.O ) c.j.j.j.z.N.@ / c.j.j.j.z.S.# H Z.j.j.",
"n m 8 X y n n n n M q X y n n n n m q X r n n n n m w X r M n n n m u X e n n n n m u X 6 n n n n y i X 4 M n n n m i X 4 N n n "
};
