/* XPM */
static char *result[] = {
/* columns rows colors chars-per-pixel */
"64 64 227 2 ",
"   c #000000",
".  c #0B0502",
"X  c #0B0906",
"o  c #070608",
"O  c #0A050A",
"+  c #070808",
"@  c #0C0C0B",
"#  c #120702",
"$  c #140B03",
"%  c #1A0D02",
"&  c #120F0B",
"*  c #16080C",
"=  c #0F100E",
"-  c #1D1205",
";  c #19130B",
":  c #0E0A15",
">  c #160B16",
",  c #120D1B",
"<  c #131413",
"1  c #181513",
"2  c #1B1A16",
"3  c #15111C",
"4  c #181719",
"5  c #1A1B1B",
"6  c #230E0B",
"7  c #231404",
"8  c #291606",
"9  c #2C1A04",
"0  c #221608",
"q  c #24190A",
"w  c #2B1C0B",
"e  c #341D03",
"r  c #371D06",
"t  c #250F15",
"y  c #291716",
"u  c #2B1D1B",
"i  c #381A12",
"p  c #2E200C",
"a  c #362206",
"s  c #3C2404",
"d  c #3F2807",
"f  c #33230E",
"g  c #3A260B",
"h  c #3E290C",
"j  c #2E2213",
"k  c #25241D",
"l  c #2C221D",
"z  c #342412",
"x  c #3B2A14",
"c  c #34261A",
"v  c #3C2C1C",
"b  c #1A1724",
"n  c #1E1C22",
"m  c #221B27",
"M  c #241B31",
"N  c #1F2020",
"B  c #232425",
"V  c #2A2324",
"C  c #272728",
"Z  c #2B232C",
"A  c #2B2B2B",
"S  c #332522",
"D  c #352A25",
"F  c #3A2D25",
"G  c #342A2A",
"H  c #2E312F",
"J  c #39342C",
"K  c #2A2734",
"L  c #2E2C3A",
"P  c #352B37",
"I  c #322C34",
"U  c #322E3C",
"Y  c #343434",
"T  c #3A3634",
"R  c #35333D",
"E  c #3B333B",
"W  c #3C3B3C",
"Q  c #412505",
"!  c #442905",
"~  c #4A2C04",
"^  c #44240D",
"/  c #432B0B",
"(  c #4B2B0A",
")  c #512E04",
"_  c #4A3008",
"`  c #4D330C",
"'  c #523303",
"]  c #5B3A04",
"[  c #54360B",
"{  c #583908",
"}  c #422E14",
"|  c #412A18",
" . c #463216",
".. c #4B3514",
"X. c #4D3817",
"o. c #46331B",
"O. c #4A361B",
"+. c #4D391C",
"@. c #5B3E13",
"#. c #523C1C",
"$. c #603F0A",
"%. c #4E3A21",
"&. c #46382A",
"*. c #523D22",
"=. c #433432",
"-. c #5E410F",
";. c #5D4217",
":. c #65430B",
">. c #624314",
",. c #6B4913",
"<. c #62451A",
"1. c #735019",
"2. c #5B482D",
"3. c #464037",
"4. c #574B39",
"5. c #54513A",
"6. c #654B25",
"7. c #6C5130",
"8. c #65553C",
"9. c #363441",
"0. c #3A3642",
"q. c #3C3B44",
"w. c #3E3B49",
"e. c #413C45",
"r. c #42354A",
"t. c #433E4A",
"y. c #3F4046",
"u. c #434344",
"i. c #44444B",
"p. c #49454B",
"a. c #494849",
"s. c #4B4B4C",
"d. c #544B40",
"f. c #585349",
"g. c #464450",
"h. c #4B4B53",
"j. c #4B4954",
"k. c #524D57",
"l. c #4E5254",
"z. c #535454",
"x. c #595A55",
"c. c #54545A",
"v. c #59555D",
"b. c #5B5C5C",
"n. c #665745",
"m. c #6B5D4E",
"M. c #52605A",
"N. c #5B625E",
"B. c #786A49",
"V. c #7F734F",
"C. c #66645A",
"Z. c #726753",
"A. c #767155",
"S. c #585760",
"D. c #5C5D62",
"F. c #615F61",
"G. c #5D6363",
"H. c #5D6866",
"J. c #636464",
"K. c #636B66",
"L. c #6C6B64",
"P. c #64646A",
"I. c #69656D",
"U. c #636B6A",
"Y. c #6B6B6C",
"T. c #64716A",
"R. c #6B726E",
"E. c #677A6E",
"W. c #7A766B",
"Q. c #6C6C72",
"!. c #726F74",
"~. c #6D7373",
"^. c #6C7C72",
"/. c #737475",
"(. c #717B75",
"). c #777478",
"_. c #7A777D",
"`. c #757D79",
"'. c #7B7C7D",
"]. c #8A7C4F",
"[. c #867A55",
"{. c #837F72",
"}. c #6F8075",
"|. c #718177",
" X c #74837A",
".X c #7A857E",
"XX c #93885C",
"oX c #988F6E",
"OX c #888578",
"+X c #908B72",
"@X c #A79F78",
"#X c #7E7E81",
"$X c #807F84",
"%X c #7D8681",
"&X c #7F8882",
"*X c #828384",
"=X c #8C8581",
"-X c #828A85",
";X c #878589",
":X c #868C89",
">X c #8B8D8C",
",X c #908F86",
"<X c #86908A",
"1X c #8C918D",
"2X c #999389",
"3X c #9C998B",
"4X c #8E8D91",
"5X c #8E9291",
"6X c #8D969A",
"7X c #939494",
"8X c #9A9796",
"9X c #959996",
"0X c #969699",
"qX c #979A99",
"wX c #9B9B9C",
"eX c #A39E8C",
"rX c #A19F9A",
"tX c #9EA09F",
"yX c #A8A598",
"uX c #9F9EA1",
"iX c #9FA1A1",
"pX c #A3A3A4",
"aX c #A7A7A8",
"sX c #ABABAC",
"dX c #B0B0AF",
"fX c #AEAEB0",
"gX c #B3B3B3",
/* pixels */
"                                          @ 4 y b W a.s.a.a.W A B C u.a.s.s.s.a.u.B                                             ",
"                                  < n b.F.v.t.h.P.wXgXsXaXyX>X*XF.Y.pXsXaXpXaXrX;XP.0.V < 5 4 @                                 ",
"                              < s.7XyXaXfX4Xk.F.*XsXyX0X7X7X>X*XJ./.pXuXqX8X8X>X#XI.k.*X7XqXpX/.=                               ",
"                        o C Y.>XaXqX7X7X0X7XF.J.*XpX7X5X1X5X:X*XP.{.wXqX8X8X8X7X*XF.F.:X0X7XwXpX7X/.u.+                         ",
"                      o s.,XwXaX7X:X:X:X1X;XN.J._.wX7X<X-X-X-X-XI.{.wXwXwXwX8X>X*Xv.G.%X,X5X7X7XwXdX*Xs.B                       ",
"                  o C e.J.).>XpX1X&X.X&X:X&Xc.F.'.7X1X.X X X X.XY.*X5X:X>X1X>X:X`.a.x.}.&X>X4X7X7XaX$XF.z.P X                   ",
"                  z.pXrX'.Y./.qX9X|.|.|. X.Xl.c./..X-X|.}.}.}.^.b.'.-X X.X X.X.Xb.q.M.E.^.:X7X7XwX;XC.Y.;XpX/.H                 ",
"              o b.aXsXsXaX;XF.*X9X X|.^.(.(.g.r.K.L.K.T.T.T.K.z.p.P.R.Y.R.^.~.K.q.L l.H.^.-X1X7X*Xb.b.0XsXsXgXpXY               ",
"            X b.pXpX8XqXrXaX;XP.'.(.K.N.z.z.9.L i.c.S.b.z.h.e.R R w.S.c.z.j.i.0.K M 9.j.N.T.|.(.v.v.>XaXwX8XwXgXwXW             ",
"            W 8X8X7X1X:X:X7XpX;Xk.z.a.q.U V , 3 3 3 b b , , , , : , b 3 3 , , : : : b K R s.z.s.z.7XuX7X5X5X7XwXsX:X<           ",
"          @ K.|.:X>X-X.X X X.X`.p.U m l j q                                           < u V I L I.7X:X-X;X<X7X5X7X.Xs.          ",
"          C R.(.|.-X.X X X^.K.s.K c z x f 0 o                                         $ q j v S R v.^.%XOX.X;X.X X`.b.=         ",
"          a.v.K.(.^. X|.^.T.y.Z &. .p c w - o                                         $ - p v  .v I l.Y. X.X X^.R.F.b.C         ",
"      + z.Y.z.s.z.K.E.^.K.i.G v +.v p j q %                                           X - w v  . .F I p.K.R.K.b.z.s.F.Y.W       ",
"      A yXpX;Xb.u.s.G.H.l.G O.o.+.o.w w 0 &                                           X $ q z v } O.o.P s.x.z.s.f.P.qXfX*X<     ",
"    o /.sXaXsXpXP.q.u.a.K %.+.v  .v q q - %                                           . $ q z x v  .#.F R s.a.s.$XsXfXsXsXu.    ",
"    Y aXsXwXqXsXsX!.0.K F +.+.v o.x q 0 - $                                           X % - j x x +.+.+.G L c.0XaXuXuXpXgX7X:   ",
"    e.fXtX7X1X1XwXrXS.Z %.#.%.x v x q - - $                                           X $ - j g x  .+.+.F 0.0XaX0X%X:XqXsXpX<   ",
"    u.sX6X:X1X&X:X>Xj.u *.+.O.x v x 0 - - $                                           X % - p z x o.X.X.| E 4X5X%X&X%X&XtXaX<   ",
"    Y qX:X&X%X%X-X/.t.c *.+.O.c h f 0 0 q 1                                           X - ; p f z o...O.%.G P.&X^.&X&X&X1X*X@   ",
"    n Q..X;X.X.X&XP.T x *.+.O.c x x 0 q k <                                           @ q q z z z O... .X.F l.%X.X:X-X:X'.c.o   ",
"    5 g.z.b.Y.^.^.b.D } %.+.O.x v x j H 5 +                                           + B j f x x O. . .O.O.a.^.(.(.J.z.p.U o   ",
"    C b.s.y.u.p.l.h.D  .%.+.O.x  .3.3.5                                                 @ H &.O.x &. . .O.+.R c.l.a.y.R R 0.+   ",
"    q.uX%XG.g.0.0.U F  .%.#.+.| 8.u.<   o o                                               = W d.+.;.X. .+.+.A L q.q.q.h.G.J.@   ",
"    u.gXsXiX>XP.i.L J  .*.#.2.C.u.@   + + X                                             o   < s.m.*.#.O.O.+.Y q.s.D.'.7XpXuX<   ",
"    u.sXtX7XwXuX*Xj.F O.#.8.L.W o o X # % %                                           . . .   < z.W.6.#.+.#.W P.&XqXuXqXaXpX<   ",
"    u.sX5X:X1X5X5XP.D  .f.C.C X + $ % - - &                                           X - $ X o : z.{.6.+.+.q.>XqX:X5X5XqXpX<   ",
"    u.aX:X-X%X&X-XU.G d.a.4 o & - e w 0 - $                                           X - - % % + @ s./.2.+.0.6X:X%X-X4X5XwX<   ",
"    3.iX<X.X|.%X&XU.R T @ o & w  . .w 0 - #                                           . - - f w ; & O u.L.2.e.0X&X.X X&X1XwX<   ",
"    y.tX X|. X|. XU.b X o $ Q X.2. .w 7 - X                                           . % % f  .g ; @ o Y J.t.4X.X.X X}.&X7X<   ",
"    W <X|..X|.|. XG.3 o % } 6.#.X. .0 - % X                                           . # & p o. ./ 8 X o C w.:X.X}. X X X-X<   ",
"    W &X|..X|.|. XG.b % h 6.7.#.X.h 0 - % .                                           . % % w } o.#.` 0 +   9.5X X}.}. X X%X<   ",
"    Y :X.X X`..X XU.u ^ #.6.7.#.X.h 7 7 $ #                                           . # % 9 g v ;.2.x % X U &X.X`.}.|..X_.=   ",
"    A `.`.`.`.(.(.G.G o.#.<.7.*...g 7 % # .                                           . # % 9 g h ;.6.o.g 7 R /.~.^.(.`.`.U.@   ",
"    n b.b.G.b.b.b.a.D o.+.<.1.O...g 7 # # .                                           . # $ q a x ;.2. .+.} W J.G.D.b.D.v.i.o   ",
"    > r.p.t.i.a.a.q.F  .O.;.<.X./ a 7 # # .                                           . # % 7 a x #.;. .%.*.P u.a.a.e.t.U b o   ",
"    A #X_._.#X*X#XF.=.|  .;.>...! e - $ # X                                             # # 7 a h X.;. .O.%.p.).*X*X_.'.).I.@   ",
"    u.aXqX5X7X7X9X).=.} ..-.-./ d 9 % # 2 5                                           X . # 7 e h ` @. .O.+.h.qXpXpXwXwXuXuX<   ",
"    u.wX1X%X.X%X.X~.D / / { { ! s 9 % V 5 +                                           @ ; # 7 e g _ @. . ...a.7X:X&X.X:X7X0X<   ",
"    u.qX:X&X|.}..XQ.S g d { ' d e z Y u                                                 < 2 - 9 a ! [ x x } a.9X.X.X.X&X:X0X<   ",
"    3.6X-X.X X}.|.~.S s s ] ' s +.a.B                                                     5 D 9 e ! [ / / / a.9X|. X X X&X1X<   ",
"    y.1X X X}.}.|.~.l e s ' ) 2.x.5     . .                                           o   o A &.a ! [ / d h e.5X|.}..X|.|.1X<   ",
"    W 1X^.^.}.^. XU.u e Q ' 8.z.<     # # #                                           . .   + T 3.! ~ / d d W *X|.^.E.^. X-X<   ",
"    A  X`.`.(.|.(.b.u e / Z.v.=   # % % % $                                           . % # + @ a.n.~ d d d e.`.(.|.`.`.`.Y.@   ",
"    m D.b.S.J.J.G.h.u z f.s.@   % e 7 % % #                                           X - % - X < J.Z.Q Q Q T J.J.b.c.h.g.w.o   ",
"    < r.t.p.p.a.a.q.Z 3.A   o 7 ! ! 9 - % .                                           . % 7 9 8 & 2 !.Z.r r Z u.a.a.i.t.U M o   ",
"    m I.).).Y.Y.Y.j.Z <   X s / [ / 9 7 % .                                           . % 7 a ! e < u Y.n.r Z F.Y.Y.!./.P.k.o   ",
"    u.sXuXwXwXqXiX).3   % ~ :.[ [ _ e 7 % .                                           . % 7 s ` / a < n J.4.e.qXpXwXrXuXpXuX<   ",
"    u.9X&X&X&X&X:X#Xb . ! ,.,.[ { _ e 7 # .                                           . % 7 s [ ` { d 4 5 b.v.qX5X-X&X:X4X7X<   ",
"    W -X^.}.^.^.^.I.V r { 1.,.[ { ~ e % o                                             . # 7 s ~ ..,.$.g < < i.>X`.^.^.`.^.;X<   ",
"    Y `.T.H.E.T.U.G.G Q :.1.,.' ) ! 8 O   o                                             . * r ~ [ ,.,.[ a @ 9.*X~.U.H.H.U./.:   ",
"    H /.H.T.U.T.T.D.S / :.,.:.' ! i *   X                                               o # 8 ! ( $.>.<.[ q R *XR.H.H.H.U.~.@   ",
"    I ~.H.H.H.T.`.G.S ( ] :.] ( y & O @ +                                               @ + X r ~ ] $.@.,.^ E '.Q.G.G.H.H.Q.@   ",
"    B D.G.G.D.G.P.G.D ( ] ] ( y + @ < o                                                   = @ * i ] ] @.>.( u.~.T.U.H.U.G.v.+   ",
"    b g.g.h.j.h.p.g.c ! ) ( i O = < +                                                       = @ 6 ( ) { ] / T c.j.g.y.y.w.U o   ",
"    : U 9.9.9.q.R R u r ^ t O > 2 +                                                         + < @ 6 ^ ) ' Q m 9.9.9.9.K K M     ",
"    , 0.j.j.k.j.j.y.y t > O < 5 = @ + @ + +   + +           o               + o o     . + & = 4 < O t ^ ~ r Z g.j.h.k.g.0.L o   ",
"    W uXwXuX0X6XqX#Xm * O m H H A C C N B 2 @ ; 2 < < & & @ @ + o X & X = < < 1 2 1 ; k A H Y J T B O t Q r W 0X9X6X0XwXuX4X:   ",
"    W 4X#X#X#X#X%XI., O k 5.C.x.f.f.z.z.l.J j &.y.T Y J Y H A k ; k Y H H J W u.u.J u 4.x.x.x.C.R.G.C X 6 r 9.#X#X#X#X#X%X;X=   ",
"    K #XI.I.Q.).!.S.b C 4. X:XOXW.OXOX).W.8.3.A.E.L.K.G.G.G.x.4.c 5.N.N.x.N.A.K.L.Z.&.Z.OX-X,X5X5X6X~.m . 6 9.Q.I.P.G.D.P.I.@   ",
"    C P.S.D.D.D.D.k.=.4.V.3X3X2X2X2XeXoXoXm.n.XXoXoXOXOXOXOXXXB.&.A./.W.OXW.OXOX+X[.n.].@X@XyXeXeXyXyXA.u o 9.k.j.j.j.g.g.t.O   ",
"    n k.w.w.w.y.i.L T 4.XXpXyXeX8X3XrXrXoXB.4.8.V.V.B.V.B.B.B.5.&.[.>X,X+XOX=X3X,X+Xn.4.B.].[.[.XX].].XX&.k K 0.q.q.9.L 9.9.O   ",
"      @ o @ @ @ @ o + @ 1 5 5 2 5 4 5 5 2 * @ @ @ & @ @ X & @ @ X 1 < 5 2 < 4 2 5 < & @ O @ @ & & @ $ & @ + o @ : o @ O o O     ",
"                                                                                                                                "
};
