/* XPM */
static char *result[] = {
/* columns rows colors chars-per-pixel */
"64 64 177 2 ",
"   c #010000",
".  c #0B0202",
"X  c #120506",
"o  c #190303",
"O  c #240505",
"+  c #2B0505",
"@  c #250708",
"#  c #200808",
"$  c #2E0909",
"%  c #340606",
"&  c #3C0707",
"*  c #320708",
"=  c #3C0708",
"-  c #350809",
";  c #3B0909",
":  c #420505",
">  c #420D0D",
",  c #4E0D0E",
"<  c #570707",
"1  c #530C0C",
"2  c #5A0B0B",
"3  c #4C1112",
"4  c #551111",
"5  c #610E0E",
"6  c #7D0708",
"7  c #7D0D0D",
"8  c #720C0C",
"9  c #681414",
"0  c #6C1618",
"q  c #721414",
"w  c #7A1112",
"e  c #7B1919",
"r  c #820E0E",
"t  c #9C0E0F",
"y  c #9F0F10",
"u  c #841212",
"i  c #8A1313",
"p  c #951516",
"a  c #9B1111",
"s  c #9A1618",
"d  c #931819",
"f  c #9B181A",
"g  c #B40410",
"h  c #A41515",
"j  c #AD1313",
"k  c #A81A1B",
"l  c #BE1111",
"z  c #9E3838",
"x  c #C51617",
"c  c #CA1414",
"v  c #C71718",
"b  c #C91718",
"n  c #C51918",
"m  c #CF1B1C",
"M  c #D41414",
"N  c #DC1415",
"B  c #DD1618",
"V  c #D41C1D",
"C  c #EC0203",
"Z  c #ED0807",
"A  c #E20009",
"S  c #EA0009",
"D  c #F40001",
"F  c #FB0203",
"G  c #F00807",
"H  c #F4000B",
"J  c #FF0708",
"K  c #F20F0F",
"L  c #FF0B0B",
"P  c #FF100F",
"I  c #E90014",
"U  c #E90817",
"Y  c #EB031A",
"T  c #F20C11",
"R  c #FD0D10",
"E  c #E41414",
"W  c #EB1414",
"Q  c #E71718",
"!  c #EB1718",
"~  c #E41B1B",
"^  c #EB1D1D",
"/  c #F31313",
"(  c #FE1212",
")  c #F21A1A",
"_  c #FF191A",
"`  c #D12C2D",
"'  c #DE2F30",
"]  c #DE3334",
"[  c #D03F3F",
"{  c #DE393A",
"}  c #ED2323",
"|  c #E53E3F",
" . c #E93132",
".. c #CD2F46",
"X. c #877575",
"o. c #D04849",
"O. c #DD5556",
"+. c #DD5758",
"@. c #DD5B5C",
"#. c #D35153",
"$. c #E94E4D",
"%. c #E14C4C",
"&. c #E75251",
"*. c #E85252",
"=. c #E55C5B",
"-. c #DE5F60",
";. c #D35A65",
":. c #E84860",
">. c #E85D77",
",. c #E85E78",
"<. c #DD6C6E",
"1. c #D46466",
"2. c #E26465",
"3. c #E76377",
"4. c #E07F7F",
"5. c #EA7F7E",
"6. c #E37171",
"7. c #0202EC",
"8. c #1C19EA",
"9. c #0005F6",
"0. c #030DF4",
"q. c #0002FA",
"w. c #000DFF",
"e. c #090EF4",
"r. c #0311F3",
"t. c #0B18F1",
"y. c #0211FF",
"u. c #0815E5",
"i. c #1623E5",
"p. c #2626EF",
"a. c #222EEB",
"s. c #2924E9",
"d. c #2733E7",
"f. c #2728F0",
"g. c #2425F0",
"h. c #DC7783",
"j. c #E17F80",
"k. c #858587",
"l. c #85858C",
"z. c #E18181",
"x. c #EA8585",
"c. c #EC8788",
"v. c #EB8A89",
"b. c #CE97A0",
"n. c #E399A2",
"m. c #EDAEAE",
"M. c #E1A1A9",
"N. c #ECBFBF",
"B. c #F1B3B3",
"V. c #F3BBBB",
"C. c #B3B6EE",
"Z. c #BBBDED",
"A. c #BDB6F1",
"S. c #BFB8F2",
"D. c #E7BEC3",
"F. c #E9B8CF",
"G. c #C5BDF0",
"H. c #EFCACB",
"J. c #E7C7DC",
"K. c #ECC7DB",
"L. c #EBD2D5",
"P. c #F4DBDD",
"I. c #D0D1EF",
"U. c #D5CEF3",
"Y. c #D3D5F1",
"T. c #DDD7F5",
"R. c #DFDAF5",
"E. c #E1DBF5",
"W. c #F9E4E4",
"Q. c #F7EAEB",
"!. c #FAECEC",
"~. c #E4E5F3",
"^. c #FAEFF0",
"/. c #FBF2F2",
"(. c #F3F4FF",
"). c #FBF6F9",
"_. c #FEFEFE",
/* pixels */
"                                                                                                                                ",
"                                                                                                                                ",
"                                                                                                                                ",
"                                                                                                                                ",
"                                                                                                                                ",
"                                                                                                                                ",
"                                                                                .                                               ",
"                                              .   . o @ @ @ @ @ @ @ @ @ @ @ o         .                                         ",
"                                              .   * V / / W / / / / / W W / k .     .   .                                       ",
"                                                  % E L L L L L L L L L L L j .           .                                     ",
"                                                  * E L L L L L L L L L L L j .                                                 ",
"                                  .   > i u i a t j K L L L L L L L L L L L N t a a a s i X                                     ",
"                                      u ( P L L L L L L L L L L L L L L J L L L ( P L L ^ -                                     ",
"                                      w ( G L L L L L L L L L L J L L L L L L L L L L J E -                                     ",
"                                . O + p ( L L L L L L L L L L L L L L L L L L L L L L L W 2 O + .                               ",
"                              . d W E / L L L L L L L L L L L L L L L L L L L L L L L L L W W ~ 3     .                         ",
"                          X   . h L L L L L L L R L R L ( L L L L L L L L L L L L L ( L ( L L _ 5     .                         ",
"                                h L L L L L L D D D D D D L L L L L L L L L L L L L D D D D D Z <                               ",
"                    X   X 4 u u M ( L L L J  .x.x.x.x.x.x.} J L L L L L L L L L J ^ 5.x.x.x.x.v.z 7 i ;                         ",
"                        X m ( ( L L L L P D @._._._._._._.{ F L L L L L L L L L J ] _._._._._._.<.L _ i                         ",
"                    .   o x L L L L L L L F O._.).)._._.^.] F L J L L L L L L L F ' Q._.)._.)._.+.D ( u                         ",
"                        o x L L L L L / ^ E ;._._._._._./.o.Q } / L L L L L K ^ ! [ !._._._.)._.1.E } e                         ",
"                        o x L L L L D 6.!.P.!._._._._._._./.Q._.1.F L L L F O.W.W.W._._._._._._.!.P./.X.                        ",
"                    .   o x L L L P D z._._.(.U.Y.U.U.U.U._._._.6.F L L L F O._._._.Y.Y.Y.I.Y.I.(._._.k.  .                     ",
"                    .   o x L L L L D z._._.A.7.9.9.9.9.7.E._._.<.F P L L F +._._.~.u.9.r.0.r.7.C._._.k.                        ",
"                        o x L L L L D z._._.G.q.y.y.y.y.r.T._._.3.F L L L F +._._.~.t.w.y.y.y.q.C._._.l.  .                     ",
"                    .   o x L L L L D z._._.A.q.y.y.y.y.e.T._._.>.F L L L D +._._.~.t.w.y.w.y.9.C._._.l.  .                     ",
"                        o x L L L P D 4._._.G.9.y.w.y.y.e.E._._.>.D L L L F +._._.~.t.w.y.w.y.9.C._._.l.                        ",
"                    . . + c L L L P D z._._.S.q.y.y.w.w.e.E._._.,.F L L L F O._._.~.t.y.y.w.y.9.C._._.l.                        ",
"                  X k c c K L L L P D z._._.A.q.w.w.w.w.9.T._._.,.D P L ( F +._._.~.r.9.w.w.w.q.C._._.b.g n 0                   ",
"                  X } L L J L L L L C z._._.G.8.p.p.p.p.s.E._._.,.H P L L F O._._.~.d.a.a.a.d.i.Z._._.n.H ( s                   ",
"                  X V L L L L L L L D z._._._.)._.).).).)._._._.3.F L L L F @._._._.).).)._.)._._._._.M.S P p                   ",
"                  X B J L L L L L P F =.V.m.H._._._._._._.J.F.K.:.F L L L F | B.m.N._._._._._._.P.D.L.h.H ( d                   ",
"                  X B L L L L L L L L G Z C #._._._._._.)...I U R R L L L L L G C ` Q._._._._._.;.A U T L R p                   ",
"                  X B L L L L L L L L L L J +._._._._._./. .F P L L L L L L R R J ] !._._._._._.@.F L L L L p                   ",
"                  X B J L L J L L L L L L F O._._._._._.).{ J L L L L L L L L L J ] /._._._._._.1.F R L L L p                   ",
"                  X B L L L L L L L L L L L } *.&.&.&.&.$.) J L L L L L L L L L L / $.*.$.&.*.*.} J L L L L p                   ",
"                  X B L L L L L L L L L L L J F F F F F F L L L L L L L L L L L L L F F F F F F J L L L L L p                   ",
"                  X B L L L L L L L L L L L L ( L L L L L L L J L L L L L L L L L L P L L L L L L L L L L L d   .               ",
"                  X N L L J L L L L L L L L L L L L L L L L L L L L L L L L L L L L L L L L L L L L L L L L d                   ",
"                  X B L L L L L L L L L L L L L L L L L L L L L L J L L L L L L L L L L L L L L L L L L L R p                   ",
"                  X B L L L L L L L L L L L L L L L L L L L L L L L L L L L L L L L L L L J L L L L L L L L p                   ",
"                  X N L L L L L L L L L L L J L L L L J L L L L L L L L L L L L L L L J L L L L L L L L L L p   .               ",
"                  X B L L L L L L L L J L L L L L L L L L J L L L L L L L J L L L L L L L L L L L L L L L L p                   ",
"                  X B L L L L L L L L L L L L J L L L L L L L L L J L L L L L L L L J L L L L L L L L L L L d                   ",
"                  X B L L L L L L L L L L L L L L L L L L L L L L L L L L J L L L L L L L L L L L L L L L L p                   ",
"                  X N L L L L L L L L L L L L L L L L L L L L L L L L L L L L L L L L L L L L L L L L L L L s                   ",
"                  X B J L L L J L L L L L L L L L L L L L L L L L L L L L L L L L L L L L L L L L L L L L L p                   ",
"                  X B L L L L L L L L L L L L L L L L L L L L L L L L L L L L L L L L L L L L L J L L L L L d                   ",
"                  X N L L L L L L R P L L L L L L L L L L L R R P P ( L L L L J L L L L L L P P L L L L L R p                   ",
"                  X B L L L L L j 7 7 l L L L L L L L L / t w u 7 7 7 l L L L L L L L L W t 7 r c L L L L L p                   ",
"                  X B L L L L / 2     w ( L L L L L L L Q -           w ( J L L L L L L E %     h L L L L L p                   ",
"                  X N J L L L ( 5     u R J L L L L L J ! =           w ( J L L L L L J ^ ;   . h L J L L L p                   ",
"                  X B L L E E B 4     q Q E W L L K E W m -   .   .   q Q E W L L L E E m -   . d ! E K L L p                   ",
"                  X B L ! 2 O + .     X + O 8 ( J M : O + .     .     X + O 8 / L M : O @ .     o + O p / L p   .               ",
"                  X M L E -                 1 ) L c o                       1 / L c o                 w R L d                   ",
"                  X ~ L ) ;   . .           4 _ ( V @   .               .   4 _ L V O   .             i ( ( f                   ",
"                  . 0 u q @   .       . .   $ e u 9 X   .             .     $ e u 0 X   .       . .   > u u 3                   ",
"                                                                                                                                ",
"                      .                       .                               .                                                 ",
"                                                                                                                                ",
"                                                                                                                                ",
"                                                                                                                                ",
"                                                                                                                                "
};
