/* XPM */
static char *_9c97c511aa14649c218ac5cfe24fa86xsXMJDHhC4TdgcGf[] = {
/* columns rows colors chars-per-pixel */
"64 64 175 2 ",
"   c #000000",
".  c #0C0303",
"X  c #140404",
"o  c #1A0506",
"O  c #250505",
"+  c #2C0404",
"@  c #220808",
"#  c #290809",
"$  c #340606",
"%  c #3E0708",
"&  c #350A07",
"*  c #4B0C0C",
"=  c #450B0B",
"-  c #530B0B",
";  c #5C0C0C",
":  c #481011",
">  c #5F1213",
",  c #630B0B",
"<  c #740C0D",
"1  c #631111",
"2  c #6A1112",
"3  c #7E1212",
"4  c #751515",
"5  c #713838",
"6  c #030972",
"7  c #270D77",
"8  c #1E216B",
"9  c #7B7B7D",
"0  c #990F0F",
"q  c #98100F",
"w  c #970F10",
"e  c #821111",
"r  c #8A1414",
"t  c #941616",
"y  c #9C1212",
"u  c #9B1819",
"i  c #A40F10",
"p  c #A41415",
"a  c #AC1213",
"s  c #A31A1B",
"d  c #BD1111",
"f  c #B31818",
"g  c #BE1C1D",
"h  c #C71617",
"j  c #CC1515",
"k  c #CE1618",
"l  c #C81D1D",
"z  c #DE1414",
"x  c #D71D1F",
"c  c #D81618",
"v  c #C30A09",
"b  c #ED0F0F",
"n  c #F20101",
"m  c #FB0303",
"M  c #FE0807",
"N  c #FF0708",
"B  c #F40F0F",
"V  c #FF0B0B",
"C  c #EC100F",
"Z  c #FF100E",
"A  c #F3100F",
"S  c #EC0F10",
"D  c #FE0E11",
"F  c #E41516",
"G  c #EB1211",
"H  c #EA1A1A",
"J  c #E11D1E",
"K  c #F61213",
"L  c #FE1213",
"P  c #F3191A",
"I  c #FF1A1A",
"U  c #FA161B",
"Y  c #D50E37",
"T  c #E20E2C",
"R  c #DB2B2A",
"E  c #DE3132",
"W  c #EE2827",
"Q  c #E62B2C",
"!  c #EB2626",
"~  c #E6332F",
"^  c #E13C3B",
"/  c #E83636",
"(  c #AA0C5C",
")  c #B61E5D",
"_  c #870D7C",
"`  c #A80C63",
"'  c #A91064",
"]  c #9B297A",
"[  c #DA4C4C",
"{  c #C75050",
"}  c #DE5758",
"|  c #DD5555",
" . c #E44D4D",
".. c #E54647",
"X. c #E45253",
"o. c #E15C5D",
"O. c #E95A5A",
"+. c #E55758",
"@. c #E25F60",
"#. c #DD7F7F",
"$. c #DA7474",
"%. c #E26161",
"&. c #E86465",
"*. c #EA6C6C",
"=. c #F37575",
"-. c #0009CC",
";. c #0009DA",
":. c #1306D9",
">. c #0713DE",
",. c #0916DE",
"<. c #1B26CF",
"1. c #252ED9",
"2. c #2630DA",
"3. c #363FDF",
"4. c #0906E7",
"5. c #0004EB",
"6. c #060AEF",
"7. c #0D0AE9",
"8. c #0905E6",
"9. c #100BE9",
"0. c #0916E1",
"q. c #0004F0",
"w. c #030BF5",
"e. c #0005FE",
"r. c #000DFE",
"t. c #090CF3",
"y. c #0211FF",
"u. c #323CE0",
"i. c #413CD2",
"p. c #3A43CB",
"a. c #3540E1",
"s. c #3B46E4",
"d. c #5159CB",
"f. c #830E85",
"g. c #821287",
"h. c #9D4391",
"j. c #DE8F8E",
"k. c #DE8385",
"l. c #E58788",
"z. c #E6898A",
"x. c #E29999",
"c. c #B5ACE8",
"v. c #AFB3EA",
"b. c #B5B7E6",
"n. c #B1B8EE",
"m. c #B9B9F2",
"M. c #BCC0E7",
"N. c #F3C3C3",
"B. c #F5CDCD",
"V. c #F5CFD0",
"C. c #F6D2D3",
"Z. c #F7DBDD",
"A. c #F7DCDC",
"S. c #F8DEDF",
"D. c #D4D6EE",
"F. c #D6D7F0",
"G. c #DDDFF1",
"H. c #F8DFE0",
"J. c #FAE1E3",
"K. c #FAEDED",
"L. c #FCF4F5",
"P. c #F4F5F9",
"I. c #F9F7F8",
"U. c #FDFAFA",
"Y. c #FEFDFB",
"T. c #FDFCFD",
"R. c #FFFFFD",
"E. c #FEFEFD",
"W. c #FEFEFE",
"Q. c #FEFEFF",
"!. c white",
"~. c #FFFFFF",
"^. c #FEFDFE",
"/. c #FEFEFE",
"(. c #FFF9F2",
/* pixels */
"                                                                                                                                ",
"                                                                                                                                ",
"                                                                                                                                ",
"                                                                                                                                ",
"                                                        .         .                                                             ",
"                                                                                                                                ",
"                                                : r 3 e e e e e e e e e 4 o   . .   .                                           ",
"                                            .   t L V D V D V L D V L L P %                                                     ",
"                                                r D B V M M M V V M V M H $                                                     ",
"                                    . . . . X   t V M V V V V V V V V V G - O + + + O X                                         ",
"                                  X g F c z z z B V V V V V V V V V V V V G F F F F H >                                         ",
"                                  X F V V V V V V V V V V V V V V V V V V V N V N V L 2   .                                     ",
"                                    c V M V V V V V V V V V V V V V V V V V V V V V L 1                                         ",
"                            o 2 , < K V V V V V V V V V V V V V V V V V V V V V V N V d < e *                                   ",
"                            - I Z L V V V V V V V V V V V V V V V V V V V V V V V V V V D L u                                   ",
"                            * K N M M V V V V V V V N V V V V V V V V N V N N V V V V V V V t                                   ",
"                        .   * ! F H H H H B V V V V V V V V V V V V H H F H H H K V V V V V y                                   ",
"                      1 l v { J.Z.Z.Z.H.C.~ N V V V V V V V V V N Q V.H.Z.Z.H.H.X.m V V V V b h k s o                           ",
"                      3 I m O.R.R.R.R.R.U.^ N V V V V V V V V V N ^ L.R.R.R.R.R.@.m L V V V V V V c O                           ",
"                      4 M n [ R.R.T.T.R.L.R n m V V V V V V N m m R K.R.T.T.T.R.| n m m V V V B V j o                           ",
"                      5 =.@.x.R.T.R.T.R.U.k.&.*.W M V V V N W *.%.#.L.R.R.R.T.R.x.%.*./ M V V V V j o                           ",
"                      9 R.T.R.T.T.R.R.T.T.R.R.R.%.m V V V m } R.R.R.R.R.T.R.R.T.R.R.R.x.n D V V V k O                           ",
"                  .   9 R.P.R.R.R.R.T.R.R.T.U.R.o.m Z V V m X.R.U.T.T.T.R.T.R.R.T.U.R.l.n V V V V k o                           ",
"                      9 R.U.R.R.R.R.R.R.T.T.T.R.o.n V V V m +.(.R.R.R.R.R.R.T.T.T.T.R.l.n D V V V k o                           ",
"                      8 s.u.a.s.u.d.P.R.T.R.T.R.@.n V V V M ) 3.u.u.a.a.p.G.R.R.T.T.R.l.n D V V V j o                           ",
"                      6 w.e.e.e.e.<.P.R.T.T.T.R.@.m V V V Z ' 5.e.e.e.e.;.D.R.T.T.T.R.l.n V V V V j O                           ",
"                      6 y.y.y.y.e.1.P.R.T.R.T.R.} m D V V V ' 9.y.y.y.y.0.F.R.T.R.T.R.z.n V V V V j X                           ",
"                # & & 7 r.y.y.y.e.1.P.R.R.R.T.R.@.m D V V Z ' 7.y.y.y.r.>.F.R.T.T.T.R.z.n D V V V z , = = .                     ",
"              . s I U g.w.r.y.y.r.1.P.R.R.R.T.T.@.m V V V V ' 7.y.r.y.r.>.D.R.T.R.T.R.l.n V V V V V L L R o                     ",
"                p V D f.w.y.y.y.r.2.P.R.T.T.T.R.o.n V V V D ' 9.y.y.y.r.0.F.R.T.R.U.R.l.n V V V V V V N F o                     ",
"              . p V D _ 4.w.6.5.5.<.I.R.T.T.R.T.@.m V V V V ' :.w.6.5.q.-.D.R.T.R.R.R.z.n V V V V V V V F o                     ",
"                p D D Y ' ( h.m.v.b.R.R.U.$.X.O.W N V V V V T ( ( ] c.n.b.P.R.R.j. .O.~ V V V V V V V N F o                     ",
"              . p Z V V Z m +.R.R.R.T.T.L.E m m M V V V V V V V m ~ (.R.R.R.T.R.| n m M V V V V V V V V F o                     ",
"                p V V V V m } T.R.R.R.R.Y.E M V V V V V V V V V N ~ P.R.R.R.R.R.%.m V V V V V V V V V V F o                     ",
"              . p Z V V V m ..V.B.B.B.B.N.~ N V V V V V V V V V N Q N.B.B.B.B.V. .m V V V V V V V V V V F o                     ",
"                p D V V V V V b b F C G G V V V V V V V V V V V V V b b S S S S V V V V V V V V V V V V J o                     ",
"                p D M V V V V N V V V V M V V V V V V V V V V V V V V V V V V V V V V V V V V N V M V M F X                     ",
"              . p Z V V V V V V V V V V V V V V V V V V V V V V V V V V V V V V M V V V V V V V V V V V F o                     ",
"                p D M V V V V M V V V V V V V V V V V V V V V V V V V V V V V V V V V V V V V V V V V V F o                     ",
"                p D V V V V V V V V V V V V V V V V M V V M V V V V V V V V V V V V V V V V V V V V V N F o                     ",
"                p L V V V V V V V V V V N V V V V V V V N V V V V V N V V V V V V V V V V V V V V V V V J o                     ",
"              . p D V V V V V V V V V V V V V V V V V V V V V V V V V V V V V V M V V V V V V V V V V V F o                     ",
"                p V M V V V V V V V V V V V V V V V V V V V V V V V V V V V V V V V V V V V V V V V V V F o                     ",
"                p V V V V V V V V V V V V V V V V V V V V V V V V V V V V V V V V V V V V V V V V V V V F o                     ",
"              . p L V V V V V V V V V M V V V V V V V V V V V V V V V V V V V V V V V V V V V V V V V V c o                     ",
"                p D V V V V V V V V V V V M V V V V V V V V V V V V V V V V V V V V V V M V V V V V V V F o                     ",
"              . p V N V V V V V V V V V V V V V N V V V V V V V V V V V V V V N M V V V V V V V V V V V F o                     ",
"                p V V V V V V N V V V V V V V V V V V V V V V V N V V V V V V V V V V V V V N V V V V M F o                     ",
"              . p V V V V V B G F C V V V V V V V V V A F F G F F G V V V V V V V V V B G F G V V V V V F o                     ",
"                p V V V V V d $ O - G V V V V V V V Z q # & + $ + - F V V V V V V V V y + O < K V V V M J o                     ",
"              . p D V V V V p     $ F V V V V V V V L e           + F V M V V V V M L e     * K V V V V F o                     ",
"                p L V V V D f .   $ H V V V V V V V L r           $ H V V V V V V Z L r     ; I V V V V F o                     ",
"              . p D V j y y 2     o t u i G V Z d w u : . . .     o r y i S V V d y y *   . # r w a B V F X                     ",
"                p V V e                 X h V U ;                       X h V K ;                 $ F V F o                     ",
"                p V L r                 X h V L ;     .                 o j V K ;                 $ F N F o                     ",
"              . u P P 3   .         .   o g K H ;   .               .   o g K H >   .             $ x K x o                     ",
"                o @ @ X   .             . o @ @ .   .                   . o @ @ .   .             . @ O @                       ",
"                                                                                                                                ",
"                                                                                                                                ",
"                                                                                                                                ",
"                                                                                                                                ",
"                                                                                                                                ",
"                                                                                                                                ",
"                                                                                                                                "
};
