/* XPM */
static char *df9ee62ed9a04342b9b08ca1faa1d809X5CgEnpBBA6QEYDL[] = {
/* columns rows colors chars-per-pixel */
"64 64 169 2 ",
"   c #000000",
".  c #0A0000",
"X  c #120404",
"o  c #190202",
"O  c #210505",
"+  c #2B0606",
"@  c #2E0708",
"#  c #210808",
"$  c #2E0909",
"%  c #330606",
"&  c #390707",
"*  c #3D0708",
"=  c #3C0A0A",
"-  c #420505",
";  c #420C0C",
":  c #4D0B0B",
">  c #490505",
",  c #540B0B",
"<  c #5C0B0B",
"1  c #531010",
"2  c #620C0C",
"3  c #700B0B",
"4  c #7E0C0C",
"5  c #671313",
"6  c #7D1213",
"7  c #7D2121",
"8  c #870E0E",
"9  c #950F0F",
"0  c #9E0E0F",
"q  c #8E0F10",
"w  c #830F10",
"e  c #841212",
"r  c #891415",
"t  c #9C1A1B",
"y  c #BD120F",
"u  c #A51415",
"i  c #AB1516",
"p  c #A51819",
"a  c #AC1A1A",
"s  c #B21617",
"d  c #B91313",
"f  c #B2191A",
"g  c #BA1B1B",
"h  c #9D153D",
"j  c #AC3A3A",
"k  c #D80F10",
"l  c #C31415",
"z  c #CA1112",
"x  c #C71718",
"c  c #CA1718",
"v  c #C11B1C",
"b  c #C91818",
"n  c #DC1313",
"m  c #DC1718",
"M  c #D41819",
"N  c #D31111",
"B  c #E80606",
"V  c #E80708",
"C  c #E20E0F",
"Z  c #F40101",
"A  c #FD0404",
"S  c #FF0807",
"D  c #F00708",
"F  c #FD0608",
"G  c #F40A0B",
"H  c #FF0B0B",
"J  c #FD0E12",
"K  c #F40F1E",
"L  c #E41414",
"P  c #EB1415",
"I  c #E31718",
"U  c #EF1719",
"Y  c #EA1C1C",
"T  c #E41A1B",
"R  c #F41515",
"E  c #FE1213",
"W  c #F3141C",
"Q  c #FE191B",
"!  c #ED201F",
"~  c #DC082E",
"^  c #DD1B28",
"/  c #DF1439",
"(  c #F40F21",
")  c #E91029",
"_  c #E21E20",
"`  c #F21122",
"'  c #D52D2F",
"]  c #DD3939",
"[  c #E92222",
"{  c #EE282A",
"}  c #E63233",
"|  c #E9403F",
" . c #BF0948",
".. c #A6095F",
"X. c #821161",
"o. c #81097F",
"O. c #A71268",
"+. c #C20F4A",
"@. c #C91553",
"#. c #BA437B",
"$. c #D64C4E",
"%. c #DD5D5E",
"&. c #EB4946",
"*. c #E44D4E",
"=. c #EA4A49",
"-. c #EA4E51",
";. c #E95352",
":. c #D34A6A",
">. c #DD6362",
",. c #DC7879",
"<. c #E47272",
"1. c #E17F7F",
"2. c #EC7C7D",
"3. c #EA7475",
"4. c #550A9D",
"5. c #700A8B",
"6. c #7D2E9D",
"7. c #4B09AF",
"8. c #5209A6",
"9. c #4A0BB5",
"0. c #470BB6",
"q. c #0008C7",
"w. c #0000CF",
"e. c #0000D8",
"r. c #190ADC",
"t. c #0A15DB",
"y. c #330AC5",
"u. c #3013C9",
"i. c #1A24C4",
"p. c #282FD4",
"a. c #2732D5",
"s. c #0809E7",
"d. c #0003EC",
"f. c #0509E7",
"g. c #0005F1",
"h. c #020AF6",
"j. c #010EFE",
"k. c #0311FF",
"l. c #841087",
"z. c #A13A88",
"x. c #E17F81",
"c. c #7F85D1",
"v. c #DE8080",
"b. c #DF9090",
"n. c #E18182",
"m. c #E8ABAB",
"M. c #E2A1A1",
"N. c #E9B6B6",
"B. c #888CDB",
"V. c #B0B4DE",
"C. c #A4A9E4",
"Z. c #A9ADEB",
"A. c #A8ADE6",
"S. c #B4B7E3",
"D. c #BAB8E7",
"F. c #F0C4C4",
"G. c #F5DCDD",
"H. c #F2D4D5",
"J. c #D3D6EC",
"K. c #DAD7F1",
"L. c #F9E5E6",
"P. c #FAEAEA",
"I. c #E4E6F3",
"U. c #EFF0F8",
"Y. c #FBF2F2",
"T. c white",
"R. c #FEFFFF",
"E. c #FEFEFE",
"W. c #F5F4F8",
/* pixels */
"                                                                                                                                ",
"                                                                                                                                ",
"                                                                                                                                ",
"                                                                                                                                ",
"                                                                                                                                ",
"                                                                                                                                ",
"                                                                                                                                ",
"                                          . . . . r v v l l l d l l l l l a $                                                   ",
"                                        .       . s J H H H H H H H H H H P %       .                                           ",
"                                                  i H G J H H H H H H H H I +                                                   ",
"                                    X = , < < < 2 z H H H H H H H H H H H P 4 < 2 : ; ; #                                       ",
"                                    = Y E E E E E H H H H H H H H H H H H H J E E E J Q e                                       ",
"                                    & L F F H H H H H H H H H H H H H H H H S S H S F J 6                                       ",
"                                .   * ^ ( W ( ` K J H H H H H H H H H H H H K ` W ` ` ` 6                                       ",
"                              = f y h 4.0.9.9.9.8.+.H H H H H H H H H H H ) 5.0.9.9.9.7.X.d s 5 .                               ",
"                              2 Q H @.r.j.j.j.j.f.O.H H H H H H H H H H H / u.j.j.j.j.h.l.E E a .                               ",
"                              , G A  .r.k.k.j.k.s...A A S H H H H H F Z A ~ y.j.j.k.k.h.l.F S 0                                 ",
"                        X = > 7 *.&.#.r.k.j.j.k.s.z.=.=.{ S H H H H W &.&.:.u.j.j.j.j.h.6.-.=.j > ; #                           ",
"                        e Q D >.E.E.K.t.j.k.j.k.f.S.E.E.n.Z H H H S ] Y.E.W.p.j.k.j.k.d.B.E.E.m.C Q v o   X                     ",
"                        e Q Z %.E.E.J.t.k.k.k.k.f.S.E.E.n.Z H H H A ] Y.E.W.p.j.k.k.k.d.B.E.E.m.B H c o                         ",
"                        e E Z >.E.E.J.q.d.d.d.g.w.V.E.E.v.Z H H H A ] Y.E.U.i.d.f.d.g.e.c.E.E.m.B H x o                         ",
"                        e E Z >.E.E.U.A.Z.Z.Z.Z.C.I.E.E.n.Z H H H S ] Y.E.E.S.Z.Z.Z.Z.C.J.E.E.m.V H x o     .                   ",
"                        e E Z ;.E.E.E.E.E.E.E.E.E.E.E.E.n.Z J H H A ] Y.E.E.E.E.E.E.E.E.E.E.E.m.V H c o     .                   ",
"                        e E Z >.E.E.E.W.E.E.E.E.E.E.E.E.v.Z H H H A ] Y.E.E.E.W.E.E.E.E.E.E.E.m.V J x o                         ",
"                        e E A %.E.E.E.E.E.E.E.E.E.E.E.E.n.Z H H H S ] Y.E.E.E.E.E.E.E.E.E.E.E.m.V H c o                         ",
"                        e E Z %.E.E.E.E.E.E.E.E.E.E.E.E.v.Z E H H A ] Y.E.E.E.E.E.E.E.E.E.Y.E.m.V E x o   X                     ",
"                        q E Z %.E.E.E.E.E.E.E.E.E.E.Y.E.n.Z H H H A ] Y.E.E.E.E.E.E.E.E.E.E.E.m.V H b o   X                     ",
"                        e E Z >.E.E.E.E.E.E.E.E.E.E.E.E.n.Z E H J S ] E.E.E.E.E.E.E.E.E.E.E.E.N.V H v X                         ",
"                . 1 q q z H F } 2.3.b.Y.E.E.E.E.E.M.3.2.} H H H H S Y 3.3.1.P.E.E.E.E.E.N.<.2.;.G H L 9 q 6 .                   ",
"                . f E H H H H H Z Z ' Y.E.E.E.E.E.$.Z Z S J H H H H H Z Z k H.E.E.E.E.E.,.B A A H H H J E T X                   ",
"                . i H H H H H H H S ] E.E.E.E.E.E.%.A E H H H H H H H E H _ G.E.E.E.E.E.v.Z J H H H H H H m X                   ",
"                . i J H H H H H H S } G.P.L.L.L.P.*.Z H H H H H H H H H H Y F.P.L.L.L.Y.<.Z H H H H H H H m X                   ",
"                . i E H H H H H H H J [ [ [ [ [ ! R H H H H H H H H H H H H ! [ [ [ [ [ R H H H H H H H H m X                   ",
"                . i H H H H H H H H H F S S S S S H H H H H H H H H H H H H S S S S S S H H H H H H H H H m X                   ",
"                . i J S H H H S H H H H H H H H H H S H H H H H H H H H H H H H H H H H H H H H H H H H H m X                   ",
"                . i H H H H H H H H H H H H H H H H H H H H H H H H H H H H H H H H H H H H H H H H H H H m .                   ",
"                . i J H H H H H H H H H H H H H H H H H H H H H H H H H H H H H H H H H H S H H H F H H H I +                   ",
"                . i H H H H H H H H H H H S H H H H H H H H H H H H H H H H H H H H H H H H H H H H H H S I %                   ",
"                . i J H H H H H H H H H H H H H H H H H H H S H H H H H H H H H H H H H H H H H H H H H H I %   .               ",
"                . p H H H H H H H S H H H H H H H H H H H H H H H H H H H H H H H H H H H H H H H H H H H I %     .             ",
"                . i J H H H H H H H H H H H H H H H H H H H H H H H H H H H H H H H H S H H H H H S H H H I %   .               ",
"                . i J S H H H H H H H H H H S H H S H H H H H H H H H H H H H H H H H H H H H H H H H H H I %                   ",
"                . i J F H H H H H H H H H H H H H H H H H H H H H H S H H H H H H H H H H H H H H H H H H I %                   ",
"                . i H H H H S H H H H H H H H H H H H H H H H H H H H H H H H H H H H H H H H H H H H H H I %   X               ",
"                . i H H H S H H H H H H H H H H H H H H H H H H H H H H H H H H H H H S H H H H H H H H H I %     X             ",
"                . i J H H H H H H H H H H H H H H H H H H H H H H H H H H H H H H H H H H H H H H H H H H T %                   ",
"                . i H F H H H H H H H H H H H H H H H H H H H H H H H H H H H H H H H H H H H H H H H H H m $                   ",
"                . i J H H H H H H H H H H H H F H H H H H H H H H H F H H H H H H H H H H H S H H H H H E [ =     X             ",
"                . i E F H H H H H H H H H H H H H H H H J H J H H H H S H H H H H H H H H H J H F H H H H I %                   ",
"                . i H H H H H L d d z H H H H H H H H H n d d d d d z J H H H H H H H H n d d M H H H H H I %                   ",
"                . i H H H H H u X   - U H F H H H H H E e   . X .   - Y H H H H H H H J w     5 R H H H H I %   .               ",
"                . i H H H H J u     & U H H H H H H S E 6           % L H F H H H H H J 6     5 E S H H H I %     .             ",
"                . i J H H H E p .   = _ E E H H H J E Q 6   .   .   = [ J J H H H J J Q r     1 W E H H H T %     .             ",
"                . i H H i < 2 = .   X 1 < 3 I H J 9 < 2 $     .     X 1 < 3 L H J q < 2 $     # < < 8 P H I %                   ",
"                . i J E 6                 o c H R ,                       o b S R :                 % L S m %   .               ",
"                . f J E 6     .           o M H R <                   .   o M H Q <   .             ; U H P %                   ",
"                . r x v <   . .       .   X t x g ;                   X   X t x g ;   X       . .   $ f v a $                   ",
"                                                                                                                                ",
"                                                                                                                                ",
"                                                                                                                                ",
"                                                                                                                                ",
"                                                                                                                                ",
"                                                                                                                                ",
"                                                                                                                                "
};
