/* XPM */
static char *ab904d4799104d80a1f2f8e59967efabpzaFFDu1YnkCsB8T[] = {
/* columns rows colors chars-per-pixel */
"64 64 178 2 ",
"   c #000000",
".  c #090101",
"X  c #140404",
"o  c #1B0404",
"O  c #1A0808",
"+  c #220304",
"@  c #2D0505",
"#  c #2A0708",
"$  c #210808",
"%  c #2D0909",
"&  c #360606",
"*  c #3C0607",
"=  c #3D0708",
"-  c #3C0B0B",
";  c #340A0B",
":  c #440707",
">  c #440A0B",
",  c #4A0A0B",
"<  c #490707",
"1  c #510B0B",
"2  c #550F10",
"3  c #4A1111",
"4  c #561212",
"5  c #630D0E",
"6  c #6C0C0D",
"7  c #730E0F",
"8  c #671314",
"9  c #6D1112",
"0  c #741313",
"q  c #7B1011",
"w  c #880E0F",
"e  c #890F10",
"r  c #950F10",
"t  c #871011",
"y  c #8A1112",
"u  c #8A1A1A",
"i  c #9D1415",
"p  c #9D1718",
"a  c #9B1A1B",
"s  c #911313",
"d  c #A11415",
"f  c #AC1415",
"g  c #A31919",
"h  c #A81819",
"j  c #B31212",
"k  c #BE1516",
"l  c #C31414",
"z  c #CB1314",
"x  c #CC1D1D",
"c  c #C51B1B",
"v  c #D41616",
"b  c #DB1515",
"n  c #DF1618",
"m  c #D31E1F",
"M  c #DC1C1D",
"N  c #ED0405",
"B  c #EA0A0A",
"V  c #F50000",
"C  c #FC0303",
"Z  c #FF0A06",
"A  c #F60E0D",
"S  c #FF0B0B",
"D  c #EF100F",
"F  c #FD100F",
"G  c #F2100F",
"H  c #FC0E12",
"J  c #F20E1B",
"K  c #E31616",
"L  c #EB1515",
"P  c #EC1C1C",
"I  c #E41E1D",
"U  c #F31313",
"Y  c #FE1212",
"T  c #F41919",
"R  c #FF1A1B",
"E  c #D00730",
"W  c #DE1133",
"Q  c #D4113E",
"!  c #DA123B",
"~  c #EC0E22",
"^  c #DB3B3A",
"/  c #EC2424",
"(  c #E32222",
")  c #E73030",
"_  c #E93333",
"`  c #E23D3E",
"'  c #E83E3E",
"]  c #B4084C",
"[  c #BD1255",
"{  c #A70857",
"}  c #9C0E68",
"|  c #850877",
" . c #B01363",
".. c #C71047",
"X. c #DE3F40",
"o. c #E03E40",
"O. c #DE4645",
"+. c #D15454",
"@. c #E24343",
"#. c #E14A49",
"$. c #E45253",
"%. c #E65959",
"&. c #D46C6C",
"*. c #D57777",
"=. c #E26566",
"-. c #E3696A",
";. c #E37575",
":. c #E37778",
">. c #E57C7C",
",. c #EA837D",
"<. c #3607BA",
"1. c #4E08A3",
"2. c #0009CA",
"3. c #0914C3",
"4. c #0F0CDE",
"5. c #1A09DC",
"6. c #0411DE",
"7. c #0A17DB",
"8. c #0B18DC",
"9. c #2807C9",
"0. c #2E09CB",
"q. c #3108C5",
"w. c #250AD5",
"e. c #2818D0",
"r. c #1D28DC",
"t. c #262EC1",
"y. c #0007E7",
"u. c #000BE2",
"i. c #0000EB",
"p. c #0A09E6",
"a. c #1409E4",
"s. c #0D1AE0",
"d. c #0A17E0",
"f. c #0003F1",
"g. c #010EFE",
"h. c #050BF3",
"j. c #0110FF",
"k. c #8A1081",
"l. c #874EB1",
"z. c #AB64A5",
"x. c #B86BA1",
"c. c #D27A98",
"v. c #DE9798",
"b. c #E28181",
"n. c #EC8583",
"m. c #EAA2A3",
"M. c #ECA9A9",
"N. c #EDBABA",
"B. c #EEBDBD",
"V. c #EDB6B6",
"C. c #9297D7",
"Z. c #8C92E0",
"A. c #949AE6",
"S. c #B9BEE7",
"D. c #BEC2E5",
"F. c #EFC2C3",
"G. c #F5DBDB",
"H. c #CACDEB",
"J. c #DADDEE",
"K. c #D0D1EB",
"L. c #C2C9F2",
"P. c #DBDDF0",
"I. c #D3D9F7",
"U. c #DFE1F0",
"Y. c #EEEEF6",
"T. c #EFF0F7",
"R. c #FCF6F6",
"E. c #FDFBFB",
"W. c #FDF9FA",
"Q. c #FEFCFD",
"!. c #FFFDFE",
"~. c #FEFEFE",
"^. c white",
"/. c #FFFFFF",
"(. c #FEFDFD",
"). c #FEFEFE",
"_. c #F6F8FC",
"`. c #F8E7E7",
/* pixels */
"                                                                                                                                ",
"                                                                                                                                ",
"                                                                                                                                ",
"                                                                                                                                ",
"                                                                                                                                ",
"                                                                                                                                ",
"                                                                                                                                ",
"                                                  0 y y y y y t t y t y y 4                                                     ",
"                                        .       X M H H H H H H Y H H S H g                                                     ",
"                                                + n Z Z Z Z Z S S S S S S f                                                     ",
"                                    . + $ + + o < K S S S S S S S S S S S k @ + + + # + .                                       ",
"                                .   3 M v v b b n S S S S S S S S S S S S G b v b v b c O                                       ",
"                                    2 Y S Z S S Z S S S S S S S S Z S S S S Z S S S S L $                                       ",
"                                    5 Y S S S S S S S S S S S S S S S S S S S S S S Z K X                                       ",
"                              - 0 7 j S S S Z S S S S S S S S S S S S S S S S S S S S U e 6 9 O                                 ",
"                              p Y H H S S S S S S S S S S S S S S S S S S S S S S S S S Y H R 2                                 ",
"                              i S S S S S S S Z S S S S S S Z S S S S S S S S S S S S S A Z H 5                                 ",
"                          . X d S S S S S S S S S S S S S S S S S S S S S S S S S S S S S Z Y 7 . o .                           ",
"                      . u c z D S S S S S S S S S S S S S S S S S S S S S S S S S S S S S S S b z c 8                           ",
"                        c Z S S S S S S S S S S S S S S S S S S S S S S S S S S S S S S S S S S Z Y s     .                     ",
"                      . k S A S S S S S S Z S S S Z S S S S S S S S S S S S S S S S S S S S S S S Y y     .                     ",
"                      . k S Z S S S S S S S S S S S S S S S S S S S S S S S S S S S S S S S S S Z H y     .                     ",
"                      . k H S S H S S S S S S S Z S S S S S S S S C S S S S S S S S S S S S S S S H y                           ",
"                      . l S S S S S S S S S S S S S S S S S S S S S S S S S S S S S S S S S S S S H s     .                     ",
"                      . l H S S Z Z A B B B B B B S S S S S S S S S S S S A B B B B B B S S S S Z Y y                           ",
"                      . k S S S H C %.F.N.N.N.B.m.P S S S S S S S S S S C ' N.N.B.N.B.V.) C S S S Y s     .                     ",
"                      . l H Z H H V >.!.!.!.!.!.`.( S S S S S S S S S H V $.!.!.!.!.!.!.O.C S S S H y   .                       ",
"                        k S S C C V ;.!._.(.E.!.G.K C C S S S S S S C C C O.!.E._.(.!.R.^ C C Z Z Y u                           ",
"                . % > < z S Z ) #.^ v.!.(.(.(.!.`.+.@.#.T Z S S S S / O.^ *.!.!.!.!.(.E.&.^ #./ Z H f < > %                     ",
"                # m U U S H N m.!.E.!.(.!.!.!.(.!.(.!.R.` C S S Y V :.!.E.!.!.!.(.(.(.(.!.E.!.=.V H S U Y a                     ",
"                @ n Z S S H N m.!.!.!.(.(.!.(.(.!.!.!.R.^ C S S S V :.!.(.!.!.!.(.!.!.!.!.!.!.=.V S S S S g                     ",
"                @ K Z S S S N m.!.(.!.(.(.(.(.(.!.(.!.R.@.C S S S V :.!.(.(.!.!.(.!.!.!.(.(.!.&.V S S S S g                     ",
"                @ n S S S S N m.(.(.(.(.(.(.!.!.!.!.!.E.@.C S S F V :.!.!.(.!.(.!.(.(.(.(.(.!.=.C S S S S g                     ",
"                @ n S S S H N m.(.(.(.(.(.(.(.!.!.!.!.R.o.C S S S V :.!.!.!.(.(.(.!.(.(.(.(.!.=.V S S S S p                     ",
"                @ n S S S S N m.!.(.!.!.(.(.!.!.!.!.!.E.o.C H S Y V :.!.(.!.(.(.!.!.!.!.(.(.!.=.V Y S Z S g                     ",
"                @ n S S S S N m.!.!.T.J.P.J.J.P.U.E.!.E.o.C S S S V :.!.!._.J.P.P.P.P.J._.!.!.&.V S S S S d   .                 ",
"                @ n Z S S S N m.!.!.C.2.8.8.8.6.t.T.(._.o.C H S S V :.!.!.D.3.d.7.7.8.3.K.!.!.=.C S S S S p                     ",
"                @ n S S S S N m.(.!.Z.f.j.g.j.g.r.Y.!.R.o.C S S F V :.!.!.S.y.j.g.g.g.u.H.!.!.=.V S S S S p                     ",
"                @ n S S S H N M.!.!.A.i.j.j.j.g.r._.!.!.o.C S S F V >.!.!.L.u.j.j.j.j.6.I.!.!.-.C F S S S p                     ",
"                @ n S S S S S $.b.n.l.f.j.g.g.g.e.c.,.>./ Z S S S C ' b.,.z.p.g.j.g.j.4.x.,.b._ C S S S S g                     ",
"                @ n S S S S S V V C | h.g.j.g.j.q.E C V Z S S S S S S V C { a.g.g.j.j.5.] V V Z S S S A S g                     ",
"                @ n S S S S S S H Y k.h.j.g.g.g.q...S S S S S S S S S S S  .p.j.j.g.j.a.[ S Y S S S S Z S d   .                 ",
"                @ n Z S S S S S S Y } 9.w.0.w.w.1.W S S S S S S S S S S S [ <.w.9.w.w.<...Z S S S S S S S g                     ",
"                @ n S S S S S S S S ~ Q Q ..Q Q W H S S S S S S S S S S S J ! ..Q Q Q ! J S S S S S S Z S p                     ",
"                @ n S S S S S S S S S Z Z S Z Z Z S S S S S S S S S S S S S Z Z Z Z Z S S Z S S S S S Z H g                     ",
"                @ n S S S Z S S S S S S S S S S S S S S S S S S S S S S S S S S S S S S S S S S S S S S S i                     ",
"                @ n Z S S S S S S S S S S S S S S S S S S S S S S S S S S S S S S S S S S S S S S S S S S g                     ",
"                @ n S S S S S S S S S S S S S S S S S S S S S S S S S S S S S S S S S S S S H S S S S S Z g                     ",
"                @ K Z S S S S S Z S S S S S S S S S S S Z S Z S Z S S S S S S S S S S S S Z S Z S S S S S g                     ",
"                @ n S S S S S U L L U Z S S S S S S S S L L L L L L G S S S S S S S S S U L L U S S S S S p                     ",
"                @ n Z S S S H e & & r Y S S S S S S S G 6 & - - = & r H Z S S S S S S U 6 & = j S S S S S g                     ",
"                @ n S S S S H 5     9 Y S S S S S S S L =           7 H A S S S S S S L *     a H C S S S d                     ",
"                @ n S S A S Y 6     q Y S S S S S S S T >       .   q R Z S S S S S S T 3   . g Y S S Z H g   .                 ",
"                @ K S G k d h -     3 h d l H Z D j f p %   . . .   3 h d l S S D j d a %     8 f g z S S i                     ",
"                @ n Z L <             .   1 U S v #                   .   1 U S v +   . .   . .     7 Y S p                     ",
"                @ n Z L =                 1 T Z v o                 .     , U Z v +     .   . .     7 Y Z d                     ",
"                X m Y I -                 , P Y m o                   .   3 / Y x $   .       . .   0 T Y a                     ",
"                  - , > .                 . , , ;                     .   O > > ; .   .             O , , %                     ",
"                                                                                                                                ",
"                                                                                                                                ",
"                                                                                                                                ",
"                                                                                                                                ",
"                                                                                                                                ",
"                                                                                                                                "
};
