/* XPM */
static char *fea883109a2f4edeff681a933806d365MtqPvGq535HCSj61[] = {
/* columns rows colors chars-per-pixel */
"64 64 182 2 ",
"   c #000000",
".  c #0B0202",
"X  c #130101",
"o  c #1B0304",
"O  c #1B0708",
"+  c #1B0808",
"@  c #230304",
"#  c #21090A",
"$  c #2D0B0B",
"%  c #2B0405",
"&  c #350607",
"*  c #3B0606",
"=  c #3C0708",
"-  c #330A0A",
";  c #3D1717",
":  c #11123F",
">  c #3A3738",
",  c #38383B",
"<  c gray21",
"1  c #460707",
"2  c #470803",
"3  c #410708",
"4  c #470909",
"5  c #4D0E0F",
"6  c #590909",
"7  c #540F0E",
"8  c #4A1011",
"9  c #461111",
"0  c #5E1111",
"q  c #690E0E",
"w  c #760F0F",
"e  c #7A0D0D",
"r  c #6B1213",
"t  c #731212",
"y  c #02044A",
"u  c #310B4C",
"i  c #800E0E",
"p  c #851819",
"a  c #951213",
"s  c #901718",
"d  c #991B1A",
"f  c #A61314",
"g  c #AB1514",
"h  c #AE1E1E",
"j  c #B71616",
"k  c #BA1515",
"l  c #B31C1C",
"z  c #AC2727",
"x  c #CB1314",
"c  c #C2191A",
"v  c #C01616",
"b  c #D61616",
"n  c #D91414",
"m  c #DB1817",
"M  c #DF1718",
"N  c #DD1B1C",
"B  c #D21D1D",
"V  c #EE0303",
"C  c #E70F0E",
"Z  c #EB0E0E",
"A  c #E10304",
"S  c #F30203",
"D  c #FD0303",
"F  c #FF0A07",
"G  c #F60D0E",
"H  c #FF0B0B",
"J  c #ED100E",
"K  c #FF100F",
"L  c #E50E10",
"P  c #FF0F10",
"I  c #F30F11",
"U  c #E51413",
"Y  c #EC1415",
"T  c #E81817",
"R  c #E41919",
"E  c #E41917",
"W  c #F21414",
"Q  c #FF1213",
"!  c #F51B1D",
"~  c #FB1819",
"^  c #D91738",
"/  c #D5123D",
"(  c #EE0E20",
")  c #E1102B",
"_  c #E22525",
"`  c #E82423",
"'  c #E6272A",
"]  c #E83B3B",
"[  c #AD0F5A",
"{  c #B71257",
"}  c #B7105A",
"|  c #9B0D6E",
" . c #9C0F71",
".. c #8F1878",
"X. c #A30F64",
"o. c #AC1860",
"O. c #D51240",
"+. c #DA5E5E",
"@. c #D75757",
"#. c #E74040",
"$. c #E54949",
"%. c #E4504E",
"&. c #E05856",
"*. c #E45D5D",
"=. c #E35353",
"-. c #DE6666",
";. c #D46D6C",
":. c #E26261",
">. c #E36B6A",
",. c #E77E7F",
"<. c #E37373",
"1. c #6442B9",
"2. c #0000CC",
"3. c #0000D4",
"4. c #0000DC",
"5. c #1806D5",
"6. c #2100C8",
"7. c #2C0ACC",
"8. c #2E06C1",
"9. c #0004E7",
"0. c #010DE2",
"q. c #0A0FE7",
"w. c #0003EB",
"e. c #140AE3",
"r. c #0815EC",
"t. c #030AF3",
"y. c #0004FD",
"u. c #010FFD",
"i. c #0212FF",
"p. c #3943C8",
"a. c #424BC5",
"s. c #4A51CE",
"d. c #444DD6",
"f. c #434FD9",
"g. c #4650D9",
"h. c #DF9D9D",
"j. c #E78383",
"k. c #E69495",
"l. c #E89B9A",
"z. c #EA9FA0",
"x. c #EBA2A2",
"c. c #E1A3A4",
"v. c #E9BCBD",
"b. c #9299DD",
"n. c #A183CC",
"m. c #A697DB",
"M. c #9DA1DA",
"N. c #A1A5DB",
"B. c #B3B6DF",
"V. c #979DE2",
"C. c #989FE3",
"Z. c #A5ADE6",
"A. c #ECBFC0",
"S. c #EFC2C2",
"D. c #EEC6C8",
"F. c #F0C3C3",
"G. c #F1CECE",
"H. c #F2C9CA",
"J. c #FCCDC8",
"K. c #F2D0CF",
"L. c #F3D7D7",
"P. c #F3D5D5",
"I. c #F3D7D8",
"U. c #F4DBDB",
"Y. c #C1C6E9",
"T. c #C4C9EB",
"R. c #D7D9ED",
"E. c #F5DFE0",
"W. c #F6E2E1",
"Q. c #FBEBEC",
"!. c #F6E8E9",
"~. c #FFF0EA",
"^. c #FDFAFA",
"/. c #FCFAF9",
"(. c #FDFDFD",
"). c #FEFDFD",
"_. c #FEFEFE",
"`. c white",
"'. c #FFFFFF",
"]. c #FDFDFE",
"[. c #FEFEFE",
"{. c #E9EAF5",
/* pixels */
"                                                                                                                                ",
"                                                                                                                                ",
"                                                                                                                                ",
"                                                                                                                                ",
"                                                                                                                                ",
"                                                    .       .     .                                                             ",
"                                                                                                                                ",
"                                          .   .   - r r r r r r r r r r r r -   . .     .                                       ",
"                                                  t ~ G K H Q Q H Q H Q H ~ t           .                                       ",
"                                                  q Q F H H H H H H H H F W q                                                   ",
"                                        O @ @ @ o i Q H H H H H H H H H F P i o @ @ % @ O                                       ",
"                                    X d M n n m b Y H H H H H H H H H H H H Y n m b b R d                                       ",
"                                    X v H H H H F H H H H H H H H H H H H H H H H H H H k X   .                                 ",
"                                    . j H H H H H H H H H H H H H H H H H H H H H H H P k                                       ",
"                              X 9 7 w n H H H H H H H H H H H H H H H H H H H H H H H H n e t 0                                 ",
"                              % N K Q H H H H G H H H H H H H H H H H H H H H H H H H H H Q Q B .                               ",
"                              @ b F H H H H H H H H H F H H H H H H H H H H H H H H H H H H H b .                               ",
"                  . .       X * M H H H H H Y U U U U U Y H H H H H H H H H H H H I U U U U Y c                                 ",
"                  . .   ; h x x I H H H P S ,.I.K.K.K.I.l.Z H H H H H H H H H H D *.I.K.G.G.L.v.z k z -                         ",
"                  .     9 ~ H H H H H H Q V z.].].].].].H.Y H H H H H H H H H H S <.].].].].].Q.` F ~ 5     .                   ",
"                    .   4 Y H H H H H D D V k.]./././.].v.A D D H H H H H H F D S -.]./././.].W.N D C 2     .                   ",
"                  .     4 Y H H H H G $.*.@.v.].].].].].L.+.*.=.W H H H H H ] -.@.k.].].].].].~.;.@.-.;                         ",
"                        4 W H H H H C H.].].].].].].].].].].].Q._ F H H H V l.].].].].].].].].].].].].>                         ",
"                  .     4 W F H H H C F.]./.].].].].].].].^.].W._ H H H K S l.]./.].].].].].].].^.^.].>   . .                   ",
"                  .     4 W H H H H C D.].].].].].].].].].].].Q.' D P H H V l.]./.].].].].].].].]./.].>                         ",
"                        4 Y H H H H C F.].(.]./.].B.p.g.d.d.f.1.^ H H H P V l.]./.].].].R.a.g.d.d.g.s.y     .                   ",
"                  . .   4 W F H H H C F.].(.(.^.].b.9.y.y.y.y.6.O.F H H H V l.].].].].].Y.4.y.y.y.y.t.y     .                   ",
"                        3 Y F H H H C F.(.(.(.(.].C.w.i.i.i.i.7.O.F H H H S l.]./.].].].T.0.i.i.i.i.r.y                         ",
"                  + 4 = e Q H H H H C F.]./.].(.].C.9.i.u.u.u.7.O.F H H Q S l.].].].].].Y.0.u.i.i.u.q.u 2 4 O                   ",
"                  9 ! W W H H H H H C S.]./.(.(.].C.9.i.i.u.u.7.O.H H H H V l.].^.].^.].T.0.i.u.i.i.e.o.W ! 5                   ",
"                  5 Q H F H H H H H C S.]./.].(.].C.w.i.i.i.u.7.O.F H P H V l.]./.].].].T.0.i.i.u.i.e.} F Q 7                   ",
"                  8 Q H H H H H K H C H.].].].].].b.3.t.9.t.t.8./ F H H H S z.].].].].].Y.2.w.9.t.t.5.{ H Q 5                   ",
"                  8 P F H H H H H H G %.>.+.S.].].R.M.Z.n... .[ ( H H H H F #.>.+.c.].].{.N.Z.m...| X.) H Q 5                   ",
"                  5 Q F H H H H H H H F D A k.]./.].].].J.J H H H H H H H K D D S -.]./.].].].Q.' F K H H Q 5                   ",
"              .   5 Q H H H H H H H H H H S z.].].].].].S.L H H H H H H H H H Q S <.].].].].].Q._ F H H H Q 5                   ",
"                  5 Q H H H H H H H H H K S j.E.P.I.L.W.x.Z H H H H H H H H G H D *.W.L.I.I.U.F.` F H H H Q 5                   ",
"                  5 Q H H H H H H H H H H H Y R T T R R T H H H H H H H H H H H H W T U R U R T G H H H F Q 5                   ",
"                  5 Q H H H H H H H H H H H H F H H H H H H H H H H H H H H H H H H H H H H H H H H H H H Q 5                   ",
"                  5 Q H H H H H H H H H H H H H H H H H H H H H H H H H H H H H H H H H H H H H H H H H H Q 5                   ",
"                  5 Q H H H H H H H H H H H H H H H H H H H H H H H H H H H H H H H H H H H H H H H H H F Q 5                   ",
"                  5 Q H H H H H H H H H H H H F H H H H H H H H H H H H H H H H H H H H H H H H H H H H H Q 5   .               ",
"                  5 Q H H H H H H H H H H H H H H H H H H H H H H H H H H H H H H H H H H H H H H H H H H Q 5                   ",
"                  5 Q H H H H H H H H H H H H H H H H H H H H H H H H H H H H H H H H H H H H H H H H H H Q 5                   ",
"                  5 Q H H H H H H H H H H H H H H H H H H H H H H H H H H H H H H H H H H H H H H H H H H Q 5                   ",
"                  5 Q H H H H H H H H H H H H H H H H H H H H H H H H H H H H H H H H H H H H H H H H H H Q 5                   ",
"              .   5 Q H H H H H H H H H H H H H H H H H H H H H H H H H H H H H H H H H H H H H H H H H H Q 5                   ",
"                  8 P F H H H H H H H H H H H H H H H H H H H H H H H H H H H H H H H H H H H H H H H H H Q 7                   ",
"                  8 Q H H H H H H H H H H H H H H H H H H H H H H H H H H H H H H H H H H H H H H H H H H Q 5                   ",
"                  7 Q H H H H H F F H H H H H H H H H H H H H H H H H H H H H H H H H H H F H H H H H H H Q 5                   ",
"                  5 Q H H H H H W T Y H H H H H H H H H G Y Y Y Y Y Y G H H H H H H H H G Y T Y H H H H H Q 5                   ",
"                  5 Q H H H H U 6 & 4 x H H H H H H H H x 4 = = = * 4 x H H H H H H H H x 2 & 6 n H H H H Q 5                   ",
"              .   5 Q H H H H b @   . j P H H H H H H H j .           j H H H H H H H H j .   @ n H H H H Q 5                   ",
"                  5 Q H H H H R %   X c Q H H H H H P P c X         X c K H H H H H H H c X   % R H H H H Q 5                   ",
"                  5 Q H U f f p O . . r f f n H H n f g t .   . .   . r g f n H H n f g t .   + p g f U H Q 5                   ",
"                  5 Q H k X                 a Q G a   .                     a Q P a   .             X k H Q 5                   ",
"                  5 Q H k X                 a H H a                         a P H a                 X k F Q 5                   ",
"                  8 ! ~ l X                 s ~ ~ s                         s ! ~ s   .             X l ~ ! 8   .               ",
"                  . $ - #   .               + - $ +   .                 .   + - $ +                 . # $ $ .                   ",
"                                                                                                                                ",
"                                                                                                                                ",
"                                                                                                                                ",
"                                                                                                                                ",
"                                                                                                                                ",
"                                                                                                                                "
};
